M48
;Layer_Color=9474304
;FILE_FORMAT=2:4
INCH,TZ
;TYPE=PLATED
T1F00S00C0.0039
;TYPE=NON_PLATED
%
T01
X3640Y3460
X4180Y3610
X3939Y5519
X3880Y8100
X4620Y7610
X4600Y6640
X4240Y6650
X4470Y6190
X4820Y5790
X4950Y5470
X5480Y5460
X5550Y6020
X4600Y5158
X4390Y5360
X4880Y4710
X7310Y4850
X7660Y4930
X7940Y4940
X8420Y4790
X8996Y4474
X8950Y4020
Y3730
X9394Y3416
X9860Y3340
X10350Y3500
X10370Y4280
X9906Y4004
X9660Y4460
X9770Y4890
X10410Y5070
X10260Y5270
X10496Y5494
X10480Y5750
X9720
X9810Y6211
X10840Y6220
X11110Y6020
X11150Y5480
X10910Y4850
X11312Y6402
X12740Y6500
X13683Y6593
X14828Y6692
X15020Y7500
X15910Y6380
X16206Y6476
X16578Y5673
X16400Y5220
X17640Y5210
X17540Y4170
X16840Y4200
X16140Y4180
X15560Y4160
X18310Y4170
X18770Y5600
X19150Y5740
X19430Y5210
X12100Y7660
X10200Y7810
X10389Y7119
X9640Y7396
X9590Y8120
X10120Y8890
X10730Y8960
X7830Y8990
X7100Y9120
X4740Y8930
X7350Y6170
X7890Y6110
X8281Y6211
X8390Y5720
X7885Y5550
X7650Y5530
X7820Y3730
X8020Y3530
X7780Y3310
X7150Y3990
X7550Y1510
X9183Y1530
X9400Y1820
X8970Y7250
X21390Y8320
X21597Y8280
X21410Y8910
X22220Y7740
X22748Y7292
X22940Y6780
X23460Y6420
X23860Y7060
X24180Y7595
X23620Y7740
X23800Y8000
X24231Y8280
X24760Y7970
X24945Y7595
X24830Y7440
X24710Y6760
X24870Y6480
X25810Y6540
Y7600
X26410
X27180
X27050Y7440
X27607Y7437
X28630
X28290Y7030
X27400Y6110
X27000Y8230
X27390Y8840
X27520Y9250
X27810Y8700
X25840Y9260
X25130Y9290
X23510Y4180
X22460Y4170
X21520
X20510Y4140
X19950Y4170
X30007Y5057
X30943Y4937
X32070Y3350
X32500Y7130
X32640Y7270
X32100Y8030
X30400Y7750
X30370Y7437
X35360Y7510
X35070Y6990
X34930Y5490
X35210Y5190
X35070Y8850
X34790Y8990
X34640Y9130
X35900Y8690
X39950Y8710
X39600Y7530
X39440Y6400
X39020Y5787
X39160Y5640
X39300Y4940
X38840Y4230
X38650Y4090
X38340Y4510
X38160Y4370
X38020Y5350
X35830Y4650
X35630Y4790
X41390Y4940
X41570Y5030
X41002Y7402
X42340Y8570
X42540Y9080
X42900Y9320
X42890Y8820
Y8320
X43430
Y8820
X44050Y8120
X47960Y8320
X47940Y7820
X47990Y9350
X47810Y9330
X47983Y5787
X48130Y5640
X48270Y5490
X45630Y5010
X46930Y9810
X48120
X47350Y11390
Y11580
Y11770
X47655Y12600
X46802Y13618
X46645Y13618
X46487
X46330Y13618
X46172Y13618
X46015Y13618
X45857
X45700Y13618
X45542Y13618
X45385Y13618
X45227Y13618
X45070
X44912Y13618
X44755
X44597
Y13775
Y13933
Y14090
Y14248
Y14405
Y14563
Y14877
Y15035
X44210Y14916
X44100Y14780
X42540Y14860
X41390Y15250
X41400Y16100
X41510Y17020
X42020Y17018
X42050Y16590
X41120Y17440
X40797Y20217
X40600Y20070
X44210Y19360
X44140Y18740
X44130Y18140
X44700Y18080
X45630Y18220
X45740Y18000
X45880Y17900
X46270Y17940
X46480Y17480
X46966Y17470
X46790Y17740
X46550Y19500
X45700Y18980
X45630Y18620
X44880Y19420
X45260Y19830
X45150Y21530
X45542Y15822
X45700Y15822
X45857
X46015
X46172
X46330Y15822
X45779Y15980
X45650Y12180
X45540Y12000
X45325Y12020
X44866Y12076
X44860Y12280
X44008Y12120
X43320Y11560
X42930Y11700
X42790Y11420
X41330Y12120
Y13110
X41186Y13384
X40625Y13535
X40480Y13680
X40340Y14325
X40200Y14470
X38375Y14325
X38375Y13535
Y12385
Y11525
X39670Y11510
Y11310
X40230Y11840
X40630Y12836
X39380Y13250
X36625Y13475
X35790Y13480
X35760Y13650
X36625Y14325
X36260Y12360
X36625Y11355
X35490Y10360
X39670Y9800
X39519Y9570
X44400Y13020
X46089Y11969
X45950Y11630
X36970Y23060
X33503Y22667
X33240Y20670
Y19980
X32730Y20000
X32130Y19980
X31470Y20050
X30540Y20360
X29540Y20380
X29430Y19450
X29250Y19050
X29390Y18270
X28480Y19310
X28340Y19190
X28000Y19050
X27780
X27560Y19880
X28140Y20280
X27420Y18270
X27780Y17570
X28300Y16535
X28520
Y16080
X28300
X29000Y14050
X30250Y14100
X30000Y12940
X29500Y12800
X29240Y12860
X28800Y12850
X27710Y12880
X27340Y12870
X27540Y13330
X27320Y10820
X27170Y10960
X26010Y10677
X25650Y10540
X25440Y10260
X25890Y9680
X27480Y9690
X27770Y9700
X28330Y9960
X28490Y10120
X28600Y10680
X29030
X29190Y11650
X28750Y11620
X29870Y11480
X30550Y11420
X30380Y11220
X31140
X31800Y11080
X32100Y10680
X31940Y10400
X31800Y10120
X32500Y10400
X32640Y10540
X32500Y11220
X34650
X34480Y10320
X34258Y10140
X34060Y9940
X34360Y9660
X34500Y9520
X35210Y9380
Y10500
X35350Y10640
X34660Y14040
X34800Y14180
X33820Y18820
X33800Y19860
X33940Y20000
X34080Y20140
X34220Y20280
X34360Y20420
X34500Y20560
X34660Y20700
X34800Y20840
X24800Y19740
X24940Y19590
X21750Y18910
X21610Y18760
X21470Y18620
X21890Y18480
X22040Y18200
X20780Y18340
X20920Y16920
X20453Y15063
X20633Y14213
X20960Y14050
X21100Y13760
X20780Y13510
X20210Y13430
X19924Y13754
X20540Y12910
X20838Y12878
X20998Y12368
X20825Y12215
X21344Y11893
X21424Y11749
X21348Y11102
X21390Y10540
X21220Y10020
X22680Y9980
X22640Y10680
X22360Y10820
Y10540
X22780Y10960
X23825Y10775
X24070Y10400
X24098Y11412
X23720Y11749
X23400Y9390
X20861Y11321
X20575Y11468
X21386Y12556
X22190Y15060
X19160Y14050
X18960Y14213
X17564Y14284
X17772Y14670
X17570Y15650
X15800Y16030
X13790Y16090
X10590Y16190
X8170Y15090
X5930Y15060
X4730Y17910
X7610Y19870
X8340Y19920
X8850Y20130
X9640Y20240
X9410Y19630
X10270
X10630Y20230
X11550Y20290
X11330Y19610
X12050Y19690
X13200
X13540Y20330
X14460Y20430
X14960Y19940
X14090Y19800
X15840Y20080
X15410Y20520
X16310Y20570
X16710Y20220
X17190Y20690
X17560Y20320
X18660Y20490
X12540Y20360
X8090Y20420
X5098Y22638
X5020Y24730
X4630Y24410
X6850Y24750
X9530Y12470
X10741Y12291
X10504Y12010
X11070Y11420
X11520Y12190
X12530
X13813Y10877
Y10484
Y10287
X10530Y9950
X9840Y10040
X9000Y9950
X9390Y11200
X10000Y11030
X5547Y9887
X4140Y10800
X3440Y11220
X2850Y13270
X2980Y15580
X2650Y15770
X2450Y15570
X3680Y17160
X3860Y17900
X4100Y21600
X3947Y22887
X3720Y23370
X2990Y22690
X1690Y22650
X1510Y22400
X1500Y22890
X1690Y23150
X1640Y22000
X4120Y24740
M30
