M48
;Layer_Color=9474304
;FILE_FORMAT=2:4
INCH,TZ
;TYPE=PLATED
T2F00S00C0.0098
T3F00S00C0.0120
T5F00S00C0.0354
T6F00S00C0.0394
;TYPE=NON_PLATED
T7F00S00C0.0390
T8F00S00C0.0701
T9F00S00C0.1260
%
T02
X698Y285
X728Y1035
X280Y790
X1648Y1035
X1696Y1470
X2176Y1660
X2446Y2050
X2566Y2480
X2589Y3193
X1686Y3170
X1698Y4255
X1410Y4790
X1420Y5250
X2050Y5630
X1698Y6255
X490Y6500
X580Y7540
X1010Y7170
X2198Y7255
X2120Y7890
X2000Y8600
X2198Y9255
X3070Y9200
X3960Y9300
X3580Y8540
X3360Y7980
X3290Y6420
Y6040
X3270Y5020
X2600Y5200
X2697Y4255
X2210Y3790
X3290Y3830
X3840Y4590
X3697Y2255
X4010Y1290
X3697Y255
X2697
X2056Y290
X1698Y255
X2636Y1130
X1192Y1720
X1510Y2090
X698Y2255
X330Y2700
X440Y3630
X540Y5060
X460Y8580
X1150Y8380
X1280Y9290
X5750Y9270
X5800Y8840
X6340Y7980
X6820
X7490Y7960
X7700Y8700
X8000Y8500
X8320Y8480
X8880Y8650
X9700Y8680
X9252Y7352
X8900Y7530
X8710Y7060
X8350Y7130
X8320Y7430
X8010Y7440
X8090Y6830
X8850Y6710
X9570Y6970
X9506Y5964
X9230Y4890
X8318Y5428
X6970Y5374
X7070Y5070
X6180Y5400
X6240Y5890
X5920Y6000
X5300Y5930
X5110Y5710
Y4450
X5370Y4310
X5870Y4480
X4640Y4030
X4260Y2920
X4330Y2140
X4260Y850
X4697Y285
X5698
X6697
X6600Y690
X6950Y880
Y1400
X6198Y1255
X6697Y2255
X7020Y2460
X7430Y2770
X7220Y3310
X8340
X9050
X9690Y2160
X10440Y2180
X10370Y1820
X10500Y1500
X10197Y1255
X9450Y1470
X8920Y1450
X8120Y1350
X7800Y1460
X7697Y285
X8698
X9697
X9310Y890
X10500Y500
X11520Y270
X11540Y1050
X11490Y1740
Y2590
X11530Y3340
X11510Y3930
X11310Y4350
X11730Y5010
X12060Y5000
X12550Y5100
X12480Y5630
X13112Y5572
X13280Y6070
X13600Y6010
X13710Y6370
X13890Y6520
X14040Y6990
X14140Y7420
X13750Y7270
X13765Y7925
X13414Y8124
X13000Y8110
X12400Y8290
X12150Y8420
X12770Y8920
X13190Y9200
X13590Y8510
X14840Y8730
X15650Y8810
X15700Y7850
X16420
X16480Y8400
X17420Y8390
X17340Y7840
X17360Y8990
X18320Y9230
X18860Y8990
X18390Y8400
X18520Y7860
X19530
X19560Y8410
X19355Y6670
X19748Y6540
X19590Y5580
X19197Y5255
X19050Y4630
X18500
X17700Y4730
X18197Y5255
X17198
X16800Y5860
X16968Y6248
X17190Y6670
X17387Y6483
X17584Y6670
X17781Y6483
X18420Y6550
X16599Y6671
X16133Y5857
X16320Y5530
X15760Y5610
X15734Y6024
X15210Y6180
X15221Y6651
X14700Y6360
X14720Y5760
X14300Y5450
X14130Y6030
X13709Y5131
X13660Y4720
X14000Y4330
X13640Y3910
X13510Y2990
X14000Y3000
X14530Y2900
X15000Y3000
X15540Y2890
X15530Y3530
X16470Y3520
X16520Y2920
X17480
X18000Y3000
X18580Y2900
X18550Y3570
X19490
X19510Y2510
X19050Y2570
X19390Y1740
X19197Y1255
X19350Y480
X18698Y285
X18600Y910
X18550Y1700
X17500Y1770
X17540Y970
X17510Y250
X16480Y270
X16500Y1010
Y1790
X15480Y1780
X15540Y990
X15500Y260
X14500Y270
Y1000
Y1790
X13490Y1780
X13530Y1000
X13490Y270
X12490Y260
X12530Y1000
X12490Y1770
Y2540
X12500Y3380
X12490Y3910
X12820Y4690
X13000Y3000
X12000
X11000
X11600Y5540
X11690Y5900
X12380Y6230
X12159Y6855
X12680Y7060
X11600Y7580
X11100Y7440
X10910Y7790
X14740Y7940
X14540Y7110
X14520Y4890
X14980Y4690
X15230Y4950
X15290Y5500
X15820Y5160
X16500Y4630
X17520Y3490
X14530Y3600
X16500Y9330
X7450Y9010
X7040Y6640
X6340Y6710
X20160Y6700
X19930Y7260
X20800Y7270
X21720
X22460Y7110
X22700Y6630
X23240
X23820Y6620
X24222Y6448
X24050Y5590
X24780Y5190
X24550Y4390
X25030Y4250
X23880Y4260
X23340Y4770
X23198Y5255
X22650Y5580
X22197Y5255
X21770Y5570
X21198Y5255
X20750Y5590
X20198Y5255
X20485Y4630
X21530Y4690
X22470Y4630
X22530Y3160
X23000Y3000
X23520Y3100
X24000Y3000
X24520Y2980
Y2510
X24490Y1790
Y1010
X24510Y260
X23490Y270
X23530Y1020
X23520Y1790
X23510Y2500
X22520Y2510
X22470Y1780
X22480Y1020
X22510Y250
X21520Y330
X21510Y1000
Y1790
X21490Y2530
X21510Y3150
X22000Y3000
X21000
X20560Y3170
X20500Y2540
X20480Y1790
Y1070
X20520Y270
X20000Y3000
X21280Y6170
X21350Y6710
X22180Y6650
X21990Y7920
X23360Y7980
X23527Y8280
X24459Y8279
X25190Y8380
X25080Y9050
X24708Y8910
X24270Y9250
X26580Y9270
Y8020
X27260Y8290
X27930Y8340
X28100Y9260
X29340Y9200
X30000Y9160
X30390Y8730
X29915Y8245
X29560Y8480
X29090Y8150
X29870Y7680
X29524Y6766
X29040Y6780
X28590Y6760
X28698Y6255
X29310Y6210
X29080Y5910
X29750Y5800
X29700Y5320
X30400Y5140
X30380Y5650
X31240Y5610
X31198Y5255
X31142Y3862
X31198Y3255
X31750Y3480
X32230
X32749Y3811
X33620Y3830
X33680Y3250
X34340Y3300
X34480Y3850
X34560Y5090
X34540Y5780
X34480Y6670
X34470Y7740
Y8480
X33520
X33510Y7720
X32830Y7800
X32690Y8440
X31850Y8470
X31400Y8360
X31440Y7770
X32050Y7260
X31320Y6700
X30320Y6810
X30253Y6547
X29699Y6421
X27940Y6460
X27160
X26590Y6620
X26830Y5880
X27270Y5730
X27840Y5780
X28450Y5730
X28810Y5320
X27740Y4970
X27250Y4820
X26970Y4200
X26840Y2880
X26860Y2530
X26070Y2500
X26090Y2880
X25500Y2870
Y2500
X25530Y1760
X25570Y1010
X25698Y285
X26697
X27590Y290
X28698Y285
X28430Y970
X29197Y1255
X28820Y1800
X27710Y1600
X26660Y1740
X26198Y1255
X25000Y3000
X28198Y3255
X28500Y2790
X29500Y2820
X29197Y3255
X29770Y3430
X29610Y3790
X30210Y3900
X30470Y3080
X30320Y1630
X31198Y1255
X31710Y1610
X31650Y2150
X31700Y2550
X32490Y2270
X32860Y1910
X32960Y1410
X33520Y1260
X33890Y1360
X34180Y1920
X33698Y2255
X33570Y2590
X32910Y2790
X32120Y1280
X31690Y820
X31697Y255
X30698
X29697Y285
X32650Y340
X33698Y255
X33510Y680
X34320Y850
X34697Y255
X35350Y860
X35100Y1910
X34697Y2255
X28630Y3730
X31200Y9120
X33850Y8990
X36250Y8550
X36150Y7900
X36770Y7830
X37430Y7870
X37330Y8550
X38570
X38650Y7460
X38389Y7451
X37770Y6850
X37080Y6390
X36600Y6840
X36760Y5730
X37400Y5770
X37000Y4850
X36380Y4840
X36320Y3850
X35760Y3820
X35700Y3260
X36790
X36940Y3850
X36350Y2670
X36697Y2255
X36630Y1810
X37110Y1830
X37890Y1720
X37800Y1000
X37000
X36210Y1090
X36300Y1620
X35750Y2100
X35698Y255
X36697
X37698
X38698Y285
X39697Y255
X40697
X41698Y285
X42698Y255
X43698
X44697
X45697Y285
X46698Y255
X47698Y285
X48900Y490
X49697Y285
X50697Y255
X50198Y1255
X51020Y1640
X50697Y2255
X49697
X49890Y2890
X50198Y3255
X49198
X49320Y4120
X49860Y4340
X50697Y4255
X51000Y3840
Y5790
X50697Y6255
X49960Y6520
X48870Y6710
X49110Y7400
X49040Y8040
X49930Y7940
X50970Y7510
X50940Y9320
X49250Y9110
X47230Y9140
X47110Y7490
X47270Y6760
X46780Y6920
X47030Y6060
X47698Y6255
X47720Y4960
X47698Y4255
X48320Y4130
X48197Y3255
X48120Y2840
X47710
X47698Y2255
X47470Y1820
X47170Y1840
X47197Y1255
X46430Y1810
X45630
X44620Y1780
X44000Y1460
X43197Y1255
X43020Y2270
Y2810
X43197Y3255
X44198
X44030Y2820
X43698Y2255
X42360Y1870
X41200Y1860
X41198Y1255
X40530Y1210
X40198Y1255
X39197
X38790Y2080
X39810Y2030
X40490Y2190
X40810Y2610
X41420Y2710
X41070Y3500
X41080Y3950
X41050Y4280
X41070Y4680
X41680Y4150
X41810Y5130
X42950Y5090
X43570Y4900
X44110Y5080
X44200Y4100
X43698Y4255
X42790Y4110
X42197Y3255
X40760Y3290
X40198Y3255
X39590Y3560
X39197Y3255
X38920Y3970
X39100Y4760
X39870Y4690
X39697Y4255
X39540Y6030
X39670Y6520
X39750Y6830
X40022Y6220
X40810Y6570
X41203Y6220
X41450Y6690
X41230Y7030
X41550Y7180
X41270Y7610
X41870Y7620
X42020Y8080
X41860Y8480
X40760Y8490
X40420Y8050
X40030Y7800
X38841Y6220
X38340
X37830Y4840
X35630Y6220
X35839Y7451
X42583Y7370
X43083Y7377
X43583
X44060Y7440
X43810Y6950
X43698Y6255
X42960Y6200
X43110Y6710
X42600
X42010Y6780
X44950Y6940
X45490Y7120
X45630Y6780
X45680Y7550
X48030Y7270
X48520Y5740
X48350Y5180
X49198Y5255
X49290Y5740
X50198Y5255
X47197
X46198
X45200Y5130
X45570Y4100
X46600Y4140
X46198Y3255
X47197
X47080Y2830
X45198Y3255
X48770Y1850
X51698Y18255
X52400Y18250
Y19250
X51198Y19255
X51460Y23250
X52400
Y24250
X51698Y24255
X50697
X49697
X48698
X47698
X47770Y23480
X48360Y23090
X49198Y23255
X50198
X47343Y22823
Y22263
X47110Y22030
X46990Y21190
X46440Y21220
X46080Y21229
X45880Y21050
X46350Y20720
X47060Y20640
X47730Y20681
X47420Y19930
X46740Y19940
X46660Y20240
X46290Y19920
X45690Y19720
X45480Y19540
X45270Y19360
X45060Y19180
X44870Y19000
X44590Y18360
X44520Y17530
X44007Y17712
X43564
X43564Y16838
X43560Y16040
X43260Y15940
X42740Y15850
X42885Y15388
X43600Y14910
X43033Y14169
X42620Y14170
Y13690
X43072
X43403
X43420Y12680
X43020Y12550
X43830Y12546
X44224Y12443
X44332Y12746
X44824Y12746
X44676Y12413
X45178Y12413
X45316Y12746
X45818Y12716
X45660Y12413
X46271Y12413
X46300Y12110
X46438Y12696
X47147Y12624
X46979Y12413
X47720Y12000
X48300Y12060
X48110Y11620
X48570Y11660
X48750Y11480
X48930Y11300
X49110Y11120
X49290Y10940
X49470Y10760
X49480Y10430
X49720Y11000
X50198Y11255
X50930Y11320
X50697Y12255
X49720Y12230
X49510Y13360
X50198Y13255
X50920Y13120
Y14120
X49750
X49430Y14810
X48814
X48780Y14430
X48690Y14090
X48820Y13913
X48347Y14366
X48280Y14810
X47930Y14670
X47550Y14494
X47324Y14917
X47344Y15694
X47531Y16059
X47787
X47964Y15724
X47880Y15420
X48280
X48830
X49410
X50156
X50166Y14810
X50610Y15910
X50697Y16255
X51020Y16040
X50900Y17000
X50190Y16670
X49830Y17140
X49198Y17255
X49180Y16450
X49190Y16070
X49697Y16255
X48820Y16807
X48328Y16797
X47796Y16826
X47550Y16679
X47954Y16511
X48197Y17255
X47786Y17643
X47924Y17840
X47698Y18255
X47100Y18100
X47196Y17643
X46069Y17683
X46202Y17446
X46320Y18360
X46740Y18370
X46720Y19020
X46290Y18820
X47420Y18970
X48197Y19255
X49198
X48698Y18255
X48820Y17840
X46615Y16708
X46861Y16413
X45365Y16482
X45099Y17063
X44360Y16980
X42592Y16838
X42580Y17840
X42120Y18040
X42100Y17410
X42190Y18620
X41370Y18630
X41230Y19000
Y19360
Y19720
X41010Y19540
Y19180
Y18820
X41120Y18360
X41440Y18090
X41030Y16790
X41220Y16510
X41390Y14880
X42050Y14860
X41840Y14170
X41870Y13690
X42020Y12520
X41560
X42010Y11560
X42610Y11640
X44440Y11900
X44200Y9680
X45320Y9640
X46350Y10010
X46790Y9580
X47640Y10050
X47750Y10480
X47260Y10500
X47590Y11480
X47840Y12800
X47914Y13303
X47909Y13549
X47570Y13273
X48260Y13000
X48540Y10560
X48220Y10120
X49940Y9660
X50697Y10255
X42980Y9720
X42020Y9630
X40800Y10720
X40630Y10900
X41000Y11080
X40280Y11260
X40270Y10540
X38380Y9620
X37470Y9600
X36705
X35940
X36220Y13490
X36950Y13470
X38040Y13480
X37740Y14520
X37200
X36030Y14500
X35960Y15510
X36190Y16510
X36100Y17460
X37090Y17480
X37910Y17460
X38820Y17450
X38610Y16510
X37480
X37500Y15530
X38750Y15520
X38880Y12520
X39000Y18470
X38110Y18500
X37120Y18490
X35940Y18470
X36830Y21530
X37460Y21910
X37980Y21880
X38990
X39740Y21830
X39500Y21560
X39320Y21380
X39680Y21160
X39860Y20980
X40540Y20640
X41130Y20620
X41170Y20290
X41040Y19980
X41470Y20030
X41860Y20040
X42180Y19920
X42260Y20190
X42698Y20255
X43260Y19913
X43698Y20255
X44040Y20380
X43824Y20674
X44510Y20790
X44697Y20255
X44220Y19930
X45697Y20255
X45240Y20860
X44867Y21837
X44460Y21770
X43684Y22199
X44870Y22670
X45198Y23255
X46198
X46120Y22570
X45570Y22310
X45820Y24140
X46698Y24255
X46970Y23080
X44800Y24030
X41150Y23960
X40890
X40550Y24110
X40270Y23870
X40198Y23255
X40280Y22730
X40697Y22255
X40520Y21880
X41420Y21840
X40980Y21370
X41864Y21170
X42970Y21034
X41150Y22650
X41198Y23255
X39620Y23430
X39420Y24010
X39960Y24760
X38490Y24710
X37970Y24730
X36500Y24760
X36110Y24180
X36400Y23730
X36440Y23110
X36410Y22730
X35850Y23120
X35530Y24600
X39340Y22580
X34390Y22430
X34500Y22910
X34790Y23480
X35190Y23720
X34697Y24255
X33450Y24730
X32490
X31490Y24750
X30460Y24730
X29490
X28270Y24740
X27470
X26390Y24680
X25698Y24255
X26198Y23255
X26470Y22730
Y22100
X27000Y22000
X27550Y22300
X28000Y22000
X28450Y22170
X29000Y22000
X29510Y22180
X30000Y22000
X30480Y22200
X31000Y22000
X31520Y22090
X32000Y22000
X32480Y22050
X33000Y22000
X34000
X34420Y21500
X33490Y23010
X32500Y23000
X31500
X30500
X29500
X28500
X27500
X27750Y20800
X28200
X28880
X29310
X29930
X30930
X31680
X32120
X32590
X32560Y18710
X33260Y18720
X33070Y18370
X32080Y18360
X31500Y18400
X31000Y18650
X30990Y19140
X30570Y19190
X29990Y19180
X29670Y19320
X28790Y19250
Y18530
X28780Y17450
X28890Y16640
X29000Y15620
X29500
X30000
X29990Y16530
X30580Y16510
X30990Y16700
X31198Y17255
X30590Y17460
X29990Y17480
X30000Y18400
X30570Y18520
X32090Y17480
X32610Y17470
X33247Y17540
X32560Y16750
X32120Y16580
X31450Y16350
X31500Y15620
X31040Y15730
X31000Y14230
X31510
X32698Y14255
X33090Y14340
X33510Y14170
X33270Y12560
X32040Y12550
X31940Y11410
X32680Y11420
X32930Y11430
X32990Y10610
X33510Y10630
X33300Y10350
X33380Y9480
X32650Y9520
X31530Y9580
X30540Y9420
X29980Y9580
X29320Y9640
X28130Y9650
X27970Y10040
X27220Y9970
X27070Y9506
X26329
X26150Y9990
X25180Y10140
X25400Y10610
X24940Y10630
X24520Y10580
X24340Y10130
X23770Y10340
X23250Y9970
X22270Y9530
X21430Y9500
X20990Y10220
X20600Y10090
X21374Y11321
Y12107
X21380Y13510
X21290Y13990
X21280Y14550
X20790Y15420
X20120Y15350
X20010Y16200
X20000Y16580
X21100Y16450
X21200Y16890
X21140Y15910
X22410Y15940
X22520Y16520
X22570Y17220
X22860Y17370
X22700Y18390
X22260Y18650
X23480Y18640
X23500Y18320
X24490Y18370
X24270Y18660
X25150Y18500
X25990Y18530
X26710Y18520
X27190
X27197Y17255
X27190Y16490
X27030Y15370
X27590Y15270
X27570Y14620
X27370Y13930
X26662Y13502
X26290Y13480
X25890Y13500
X25260
X24675Y13395
X24270Y13490
X23580Y13570
X23630Y12920
X23620Y12520
X24160
X25000Y12530
X26040Y12550
X26490Y12480
X26930Y12520
X28280Y12470
X28900Y12560
X29680Y12550
X30490Y12540
X30860Y11420
X29990Y14170
X29510Y14180
X26677Y14634
X25690Y14600
X24800Y14470
X24250Y14500
X23698Y14255
X23890Y15680
X23750Y16500
X24030Y17000
X24075Y17370
X24540
X24530Y16760
X24560Y16120
X24530Y15290
X22850Y15440
X22520Y14872
X20780Y13100
X19950Y13290
X19930Y12800
X20440Y17870
X21120Y17880
X20910Y20800
X21890
X22870
X23920
X24910
X25830
X26750
X27120
X25698Y22255
X25000Y22000
X24520
X24000
X23550Y21800
X23000Y22000
X22570Y21780
X22000Y22000
X21570Y21750
X21000Y22000
X20570Y21790
X20390Y21310
X19900Y20800
X20000Y22000
X20500Y23000
X21500
X22500
X23500
X24500
X24480Y24750
X23490Y24730
X22490Y24750
X21480Y24740
X20490Y24720
X25198Y17255
X26198
X26900Y10900
X24675Y11625
X32500Y15620
X33000
X33020Y16250
X32698Y16255
X19640Y15110
X19120Y15140
X18760Y15320
X18197Y15255
X18030Y15670
X18390Y16340
X18400Y18000
X17900Y18010
X17400Y18000
X16920Y18010
X16400Y18000
X15400
X14400
X13880Y18000
X13400Y18000
X12900Y18050
X12400Y18000
X11890Y18130
X11400Y18000
X10930Y18140
X10400Y18000
X9400
X9870Y18520
X9910Y17400
X10230Y16740
X9880Y16410
X10940Y16160
X12070Y16050
X12100Y15550
X11580Y15530
X11440Y14680
X11410Y14350
X11900Y14600
X12300Y15140
X12820Y15430
X13197Y15255
X13740Y15240
X13410Y16280
X12697Y16255
X12910Y16900
X13910
X14570Y16290
X15130Y16300
X15650Y16850
X16890Y16710
X16402Y14197
X15687Y13997
X15310Y13990
X15025Y13515
X14700Y13460
X14760Y12440
X14750Y11920
X15450
X15470Y12470
X16402Y12190
X16490Y11890
X16780Y12330
X17520Y12060
X17160Y11620
X16490Y11160
X15420Y11140
X14750Y11120
X14730Y10370
X15340Y10260
X15692Y10452
X15810Y10080
X15670Y9470
X14690Y9510
X13761Y9499
X13394Y9694
X13570Y10090
X13540Y10700
X13040Y10550
X12726Y10930
X13020Y11310
X12840Y11680
X12510Y11670
X12250Y11440
X12210Y11950
X12320Y12460
X12780Y12450
X13600Y12460
X13360Y11970
X13344Y11664
X13630Y11400
X12750Y10100
X12860Y9600
X12180Y9520
X12190Y10480
X11570Y10750
X11390Y11180
X11140Y11737
X11250Y12460
X10300Y12150
X9940Y12160
X9580
X8856Y11884
X8730Y11220
X8790Y10780
X9650Y10560
X9660Y11040
X10540Y11020
X10500Y10460
X10410Y9390
X8850Y9490
X7960Y9460
X7170Y9820
X6660Y10220
X6340Y11790
X6300Y12360
X6697Y12255
X7250Y12310
X7390Y11560
X8350Y11570
X8330Y12290
X9190Y14600
X9200Y15680
X7750Y15170
X7250Y14870
X7230Y14410
X6150Y14380
X6140Y14700
X5300Y14940
X5250Y15470
X4560Y15480
X4500Y14500
X5280Y14180
X4780Y13590
X4326Y11795
X4560Y11470
X4650Y10990
X5060
X5360Y11150
X5296Y11670
X4216Y11080
X4670Y9660
X5020
X5680Y16340
X6660Y16360
X7180Y15890
X7220Y15560
X7840Y16290
X7880Y17160
X7960Y18010
X8400Y18000
X7900Y18500
X7400Y18000
X6930Y18300
X6900Y18940
X5990Y18950
X4800Y19000
X5180Y21130
X5940Y20790
X6733Y20327
X7030Y20550
X7400Y20450
X7340Y20790
X7900Y21000
X7920Y21880
X8400Y22000
X8970Y21810
X9400Y22000
X9920Y21820
X10400Y22004
X11400Y22000
X11990Y21830
X12400Y22000
X12920Y21830
X13400Y22000
X13940Y21860
X14400Y22000
X14970Y21820
X15400Y22000
X15960Y21820
X16400Y22000
X16870Y22020
X17580Y22010
X18000Y22000
X18540Y21830
X19000Y22000
X19560Y21810
X19420Y21230
X19060Y20800
X18500Y21140
X18120Y20800
X17500Y21200
X16800
X15900Y21000
X14900
X13900
X12900
X11900
X10900
X9900
X8900
Y23000
X9900
X10900
X11900Y23000
X12900Y23000
X13900
X14900
X15900
X17210Y22760
X17198Y23255
X17210Y24580
X18520Y24730
X19480Y24740
X19500Y23000
X18500
X15860Y24750
X14900Y24730
X13890
X12890Y24720
X11890Y24710
X10890
X9900Y24730
X8890Y24740
X7910Y24710
X6697Y24255
X5698
X4658Y24032
X4210Y24340
X4590Y22930
X5210Y22960
X5197Y23255
X6198
X6910Y23000
X7900
X7400Y22000
X6970Y21230
X4580Y21870
X4910Y22370
X6410Y17740
X8950Y17440
X8880Y18720
X10910Y17480
X13000Y14470
X14270Y14340
X12500Y13530
X16890Y13670
X17977Y13517
X18178Y13922
X18576Y13746
X18962Y14748
X19570Y12440
Y11810
X19230Y11210
X18110Y11160
X18440Y11820
Y12330
X17770Y9820
X19130
X16390
X18960Y17870
X19780Y17880
X3810Y18580
X3850Y19570
X3750Y20310
X3590Y20980
X2950Y21010
X2830Y21720
X2198Y21255
X1198
X1380Y22140
Y22640
Y23140
X1620Y23670
X1380Y24140
X1570Y24630
X2550Y24710
X2990Y23920
X3550Y23840
X3880Y24570
X3650Y22850
X2940Y23240
X400Y21720
X698Y20255
X1698
X2198Y19255
X3198
X2950Y18080
X2320Y17350
X1198Y17255
X1170Y18080
X698Y18255
X1698
X1198Y19255
X1260Y15970
X1698Y16255
X2610Y16190
X3570Y16450
X3830Y15310
X3350Y15030
X3290Y14530
X3820Y14370
X3790Y13400
X3270Y13610
X4160Y13040
X3140Y11780
X2430Y11740
X2540Y10630
X2900Y10880
X3640Y10890
X1710Y10600
X1720Y10280
X1960Y9960
X1610Y9650
X430Y9460
X1980Y13240
X1970Y14490
X2450Y14390
X1960Y15120
X1198Y15255
X570Y15430
X500Y16500
X1240Y14410
X350Y24720
T03
X45299Y7979
X45693
X46087
Y8373
Y8767
X45693
Y8373
X45299
Y8767
Y9161
X45693
X46087
X46041Y14011
Y14484
Y14956
Y15429
X45516
Y14956
Y14484
Y14011
X44991
Y14484
Y14956
Y15429
X46566
Y14956
Y14484
Y14011
T05
X3220Y4490
Y5490
X11000Y1500
X12000
X13000
Y500
X12000
X11000
X14000
X15000
Y1500
X14000
X16000
Y500
X17000
X18000
Y1500
X17000
X12000Y9000
X20000Y1500
Y500
X21000
Y1500
X22000
X23000
Y500
X22000
X24000
X25000
Y1500
X24000
Y23500
X23000
Y24500
X24000
X25000
Y23500
X27000
Y24500
X28000
X29000
X30000
Y23500
X31000
X32000
Y24500
X33000
Y23500
X34000
Y24500
X31000
X29000Y23500
X28000
X22000
X21000
Y24500
X22000
X20000
Y23500
X19000
X18000
Y24500
X19000
X16400
Y23500
X15400
Y24500
X14400
X13400
Y23500
X14400
X12400
X11400
X10400
Y24500
X11400
X12400
X9400
X8400
X7400
Y23500
X8400
X9400
X12000Y11000
Y10000
T06
X38580Y1270
X49250Y24000
T07
X23500Y15500
X23900Y18500
X23100
T08
X2954Y7590
Y16929
Y20157
T09
X5500Y3000
X26000Y5000
X38000Y3000
X35500Y22000
X50500Y18250
X26000Y16000
X6000Y22000
M30
