G04*
G04 #@! TF.GenerationSoftware,Altium Limited,Altium Designer,19.1.7 (138)*
G04*
G04 Layer_Color=6710886*
%FSLAX24Y24*%
%MOIN*%
G70*
G01*
G75*
%ADD33O,0.0591X0.0787*%
%ADD34O,0.0787X0.0591*%
G04:AMPARAMS|DCode=35|XSize=43.3mil|YSize=39.4mil|CornerRadius=3mil|HoleSize=0mil|Usage=FLASHONLY|Rotation=180.000|XOffset=0mil|YOffset=0mil|HoleType=Round|Shape=RoundedRectangle|*
%AMROUNDEDRECTD35*
21,1,0.0433,0.0335,0,0,180.0*
21,1,0.0374,0.0394,0,0,180.0*
1,1,0.0059,-0.0187,0.0167*
1,1,0.0059,0.0187,0.0167*
1,1,0.0059,0.0187,-0.0167*
1,1,0.0059,-0.0187,-0.0167*
%
%ADD35ROUNDEDRECTD35*%
%ADD36R,0.0315X0.0118*%
%ADD37R,0.0197X0.0148*%
%ADD38R,0.0138X0.0138*%
%ADD39R,0.0138X0.0098*%
%ADD40R,0.0138X0.0118*%
%ADD41R,0.0138X0.0098*%
%ADD42R,0.0551X0.0197*%
%ADD43R,0.0366X0.0445*%
%ADD44R,0.0236X0.0197*%
%ADD45R,0.0106X0.0118*%
%ADD46R,0.0118X0.0106*%
%ADD47C,0.0093*%
%ADD48O,0.0098X0.0374*%
%ADD49O,0.0374X0.0098*%
%ADD50R,0.0445X0.0445*%
%ADD51R,0.0283X0.0413*%
%ADD52R,0.0362X0.0280*%
%ADD53R,0.0177X0.0165*%
%ADD54R,0.0413X0.0283*%
%ADD55R,0.0118X0.0138*%
%ADD56R,0.0299X0.0945*%
%ADD57R,0.1500X0.0500*%
%ADD58R,0.1063X0.0315*%
%ADD59R,0.0118X0.0315*%
%ADD60R,0.0236X0.1024*%
%ADD61R,0.0630X0.0551*%
%ADD62R,0.0748X0.0610*%
%ADD63R,0.0157X0.0531*%
%ADD64R,0.0551X0.0295*%
%ADD65R,0.0138X0.0354*%
%ADD66R,0.0236X0.0394*%
%ADD67R,0.0354X0.0138*%
%ADD68R,0.0394X0.0236*%
%ADD69R,0.0138X0.0098*%
%ADD70R,0.0138X0.0059*%
%ADD71R,0.0138X0.0059*%
%ADD72R,0.0108X0.0118*%
%ADD73O,0.0551X0.0157*%
%ADD74R,0.0453X0.0177*%
%ADD75O,0.0071X0.0240*%
%ADD76O,0.0240X0.0071*%
%ADD77R,0.0394X0.0630*%
%ADD78R,0.0472X0.0630*%
%ADD79R,0.0472X0.0787*%
%ADD80R,0.1083X0.0551*%
%ADD81R,0.0217X0.0236*%
%ADD82R,0.0157X0.0098*%
%ADD83R,0.0157X0.0276*%
%ADD84R,0.0551X0.0236*%
%ADD85R,0.0669X0.0236*%
%ADD86R,0.0098X0.0157*%
%ADD87R,0.0276X0.0157*%
%ADD88R,0.1252X0.0500*%
%ADD89R,0.0945X0.0299*%
%ADD90R,0.0402X0.0862*%
%ADD91R,0.0320X0.0300*%
%ADD92R,0.0300X0.0320*%
%ADD93R,0.0315X0.0295*%
%ADD94R,0.0295X0.0315*%
%ADD95R,0.0709X0.0472*%
%ADD96R,0.0610X0.0236*%
%ADD97R,0.0551X0.0630*%
%ADD98R,0.0610X0.0748*%
%ADD99R,0.0531X0.0157*%
%ADD100R,0.0315X0.0295*%
%ADD101R,0.0228X0.0197*%
%ADD102R,0.0256X0.0197*%
%ADD103R,0.0197X0.0256*%
%ADD104R,0.0098X0.0142*%
%ADD105R,0.0500X0.0300*%
%ADD106R,0.1000X0.1051*%
%ADD107R,0.0394X0.0335*%
%ADD108R,0.0236X0.0335*%
%ADD109R,0.0335X0.0394*%
%ADD110R,0.0335X0.0236*%
%ADD111R,0.0197X0.0236*%
%ADD112O,0.0650X0.0118*%
%ADD113O,0.0118X0.0650*%
%ADD114C,0.0167*%
%ADD115C,0.0098*%
%ADD116R,0.0335X0.0374*%
%ADD117C,0.0394*%
G36*
X11334Y8518D02*
Y8282D01*
X11078Y8026D01*
X10291D01*
X10035Y8282D01*
Y8518D01*
X10291Y8774D01*
X11078D01*
X11334Y8518D01*
D02*
G37*
D33*
X41704Y23600D02*
D03*
X44303D02*
D03*
D34*
X1400Y11201D02*
D03*
Y13799D02*
D03*
D35*
X46546Y14011D02*
D03*
X46034D02*
D03*
X45523D02*
D03*
X45011D02*
D03*
Y14484D02*
D03*
X45523D02*
D03*
X46034D02*
D03*
X46546D02*
D03*
X45011Y14956D02*
D03*
X45523D02*
D03*
X46034D02*
D03*
X46546D02*
D03*
X45011Y15429D02*
D03*
X45523D02*
D03*
X46034D02*
D03*
X46546D02*
D03*
D36*
X8160Y8137D02*
D03*
X8160Y7783D02*
D03*
D37*
X8160Y8162D02*
D03*
Y7758D02*
D03*
D38*
X7776Y8177D02*
D03*
D39*
Y7960D02*
D03*
Y7763D02*
D03*
X8544D02*
D03*
Y7960D02*
D03*
Y8157D02*
D03*
D40*
X4360Y9887D02*
D03*
Y10143D02*
D03*
X5360D02*
D03*
Y9887D02*
D03*
X9292Y5997D02*
D03*
X9036D02*
D03*
X8780D02*
D03*
Y5308D02*
D03*
X9036D02*
D03*
X9292D02*
D03*
X12954Y7166D02*
D03*
X13210D02*
D03*
X13466D02*
D03*
Y7854D02*
D03*
X13210D02*
D03*
X12954D02*
D03*
X4459Y24004D02*
D03*
X4203D02*
D03*
X3947D02*
D03*
Y23316D02*
D03*
X4203D02*
D03*
X4459D02*
D03*
D41*
X5360Y10399D02*
D03*
Y10596D02*
D03*
Y10793D02*
D03*
X4360D02*
D03*
Y10596D02*
D03*
Y10399D02*
D03*
D42*
X4860Y10025D02*
D03*
Y10655D02*
D03*
D43*
X46138Y8046D02*
D03*
Y8570D02*
D03*
Y9094D02*
D03*
X45693Y8046D02*
D03*
Y8570D02*
D03*
Y9094D02*
D03*
X45248Y8046D02*
D03*
Y8570D02*
D03*
Y9094D02*
D03*
D44*
X40967Y7037D02*
D03*
X40573D02*
D03*
X40167D02*
D03*
X39773D02*
D03*
X15707Y13776D02*
D03*
X15313D02*
D03*
X45798Y17064D02*
D03*
X45405D02*
D03*
X46891Y16708D02*
D03*
X47284D02*
D03*
X8507Y8970D02*
D03*
X8113D02*
D03*
X45188Y16730D02*
D03*
X45582D02*
D03*
D45*
X47615Y15117D02*
D03*
X47839D02*
D03*
X8102Y7120D02*
D03*
X7878D02*
D03*
X7612Y7120D02*
D03*
X7388D02*
D03*
X41002Y7530D02*
D03*
X40778D02*
D03*
X39728D02*
D03*
X39952D02*
D03*
X20998Y12536D02*
D03*
X21222D02*
D03*
X20998Y12157D02*
D03*
X21222D02*
D03*
X20998Y11863D02*
D03*
X21222D02*
D03*
X20998Y11639D02*
D03*
X21222D02*
D03*
X20998Y11321D02*
D03*
X21222D02*
D03*
X20998Y11102D02*
D03*
X21222D02*
D03*
X20998Y10445D02*
D03*
X21222D02*
D03*
X20998Y9896D02*
D03*
X21222D02*
D03*
X20998Y8910D02*
D03*
X21222D02*
D03*
X20998Y8537D02*
D03*
X21222D02*
D03*
X20998Y8320D02*
D03*
X21222D02*
D03*
X20998Y8103D02*
D03*
X21222D02*
D03*
X20998Y7730D02*
D03*
X21222D02*
D03*
X8528Y3310D02*
D03*
X8752D02*
D03*
X10028Y5070D02*
D03*
X10252D02*
D03*
X9408Y4890D02*
D03*
X9632D02*
D03*
X7408Y3310D02*
D03*
X7632D02*
D03*
X10952Y11100D02*
D03*
X10728D02*
D03*
X5958Y10910D02*
D03*
X6182D02*
D03*
X7398Y6900D02*
D03*
X7622D02*
D03*
X1246Y10310D02*
D03*
X1471D02*
D03*
X3664Y11840D02*
D03*
X3888D02*
D03*
X2852Y15560D02*
D03*
X2628D02*
D03*
X3082Y14520D02*
D03*
X2858D02*
D03*
X29749Y6600D02*
D03*
X29524D02*
D03*
X24222Y6620D02*
D03*
X23998D02*
D03*
X26996D02*
D03*
X26771D02*
D03*
X14282Y6520D02*
D03*
X14058D02*
D03*
X17058Y13670D02*
D03*
X17282D02*
D03*
X18178Y13746D02*
D03*
X18402D02*
D03*
X19338Y6450D02*
D03*
X19562D02*
D03*
X47722Y16482D02*
D03*
X47497D02*
D03*
X47702Y14670D02*
D03*
X47478D02*
D03*
X47702Y13460D02*
D03*
X47478D02*
D03*
X43609Y12712D02*
D03*
X43834D02*
D03*
X43178Y13900D02*
D03*
X43403D02*
D03*
X47477Y13696D02*
D03*
X47702D02*
D03*
X46607Y16413D02*
D03*
X46383D02*
D03*
X21222Y9500D02*
D03*
X20998D02*
D03*
X21222Y10880D02*
D03*
X20998D02*
D03*
X3948Y23060D02*
D03*
X4172D02*
D03*
X4722Y21600D02*
D03*
X4498D02*
D03*
X42198Y16840D02*
D03*
X42422D02*
D03*
X10092Y1820D02*
D03*
X9868D02*
D03*
X11312Y6540D02*
D03*
X11088D02*
D03*
X5762Y5730D02*
D03*
X5538D02*
D03*
X1246Y10590D02*
D03*
X1471D02*
D03*
X52051Y21087D02*
D03*
X51826D02*
D03*
X50051D02*
D03*
X49826D02*
D03*
X52051Y22447D02*
D03*
X51826D02*
D03*
X50051D02*
D03*
X49826D02*
D03*
X5872Y14540D02*
D03*
X5648D02*
D03*
X9022Y5060D02*
D03*
X8798D02*
D03*
D46*
X48070Y15186D02*
D03*
Y15410D02*
D03*
X4630Y4408D02*
D03*
Y4632D02*
D03*
X7650Y5902D02*
D03*
Y5678D02*
D03*
X3939Y5158D02*
D03*
Y5382D02*
D03*
X4149D02*
D03*
Y5158D02*
D03*
X3090Y10222D02*
D03*
Y9998D02*
D03*
X13300Y5348D02*
D03*
Y5572D02*
D03*
X2800Y9892D02*
D03*
Y9668D02*
D03*
X14000Y5398D02*
D03*
Y5622D02*
D03*
X25400Y11002D02*
D03*
Y10778D02*
D03*
X41157Y23791D02*
D03*
Y23567D02*
D03*
X43010Y16888D02*
D03*
Y17112D02*
D03*
X43230Y16888D02*
D03*
Y17112D02*
D03*
X36600Y1358D02*
D03*
Y1582D02*
D03*
X29090Y7982D02*
D03*
Y7758D02*
D03*
X40564Y7308D02*
D03*
Y7533D02*
D03*
X35010Y4362D02*
D03*
Y4138D02*
D03*
X40166Y7308D02*
D03*
Y7533D02*
D03*
X21220Y12878D02*
D03*
Y13102D02*
D03*
X20990Y12878D02*
D03*
Y13102D02*
D03*
X23720Y11412D02*
D03*
Y11188D02*
D03*
X23940Y11412D02*
D03*
Y11188D02*
D03*
X28300Y16862D02*
D03*
Y16638D02*
D03*
X28520Y16862D02*
D03*
Y16638D02*
D03*
X19150Y6248D02*
D03*
Y6024D02*
D03*
X18770Y6248D02*
D03*
Y6024D02*
D03*
X17564Y14284D02*
D03*
Y14060D02*
D03*
X17801Y14284D02*
D03*
Y14060D02*
D03*
X16355Y6248D02*
D03*
Y6024D02*
D03*
X15910Y6248D02*
D03*
Y6024D02*
D03*
X12610Y6428D02*
D03*
Y6652D02*
D03*
X12660Y8268D02*
D03*
Y8492D02*
D03*
X12380Y6652D02*
D03*
Y6428D02*
D03*
X22520Y15442D02*
D03*
Y15218D02*
D03*
X2520Y9678D02*
D03*
Y9902D02*
D03*
X40887Y23567D02*
D03*
Y23791D02*
D03*
X42254Y20572D02*
D03*
Y20347D02*
D03*
X45570Y21918D02*
D03*
Y22142D02*
D03*
X44867Y22222D02*
D03*
Y21997D02*
D03*
X44063Y7842D02*
D03*
Y7618D02*
D03*
X13590Y9694D02*
D03*
Y9918D02*
D03*
Y8124D02*
D03*
Y8348D02*
D03*
X16800Y6248D02*
D03*
Y6024D02*
D03*
X20780Y10278D02*
D03*
Y10054D02*
D03*
X13590Y11664D02*
D03*
Y11888D02*
D03*
X19130Y14972D02*
D03*
Y14748D02*
D03*
X28520Y16432D02*
D03*
Y16208D02*
D03*
X28300Y16432D02*
D03*
Y16208D02*
D03*
X47531Y15651D02*
D03*
Y15876D02*
D03*
X46940Y12610D02*
D03*
Y12834D02*
D03*
X46231Y12610D02*
D03*
Y12834D02*
D03*
X45621Y12610D02*
D03*
Y12834D02*
D03*
X45129Y12610D02*
D03*
Y12834D02*
D03*
X44637Y12610D02*
D03*
Y12834D02*
D03*
X44145Y12610D02*
D03*
Y12834D02*
D03*
X43731Y16053D02*
D03*
Y15828D02*
D03*
X47393Y15120D02*
D03*
Y15344D02*
D03*
X47747Y15876D02*
D03*
Y15651D02*
D03*
X16578Y6024D02*
D03*
Y6248D02*
D03*
X16133Y6248D02*
D03*
Y6024D02*
D03*
X20200Y17428D02*
D03*
Y17652D02*
D03*
X45857Y17578D02*
D03*
X45857Y17354D02*
D03*
X47491Y17224D02*
D03*
Y17000D02*
D03*
X3396Y22622D02*
D03*
Y22398D02*
D03*
X4945Y22862D02*
D03*
Y22638D02*
D03*
X29310Y6612D02*
D03*
Y6388D02*
D03*
X12830Y15252D02*
D03*
Y15028D02*
D03*
X30470Y4022D02*
D03*
Y3798D02*
D03*
X6740Y15342D02*
D03*
Y15118D02*
D03*
D47*
X7991Y5259D02*
D03*
X8149D02*
D03*
X7991Y5101D02*
D03*
X8149D02*
D03*
X10899Y12029D02*
D03*
Y11871D02*
D03*
X10741Y12029D02*
D03*
Y11871D02*
D03*
X11937Y6687D02*
D03*
X11779D02*
D03*
X11937Y6845D02*
D03*
X11779D02*
D03*
X7991Y5814D02*
D03*
X8149D02*
D03*
X7991Y5656D02*
D03*
X8149D02*
D03*
X9259Y6961D02*
D03*
X9101D02*
D03*
X9259Y7119D02*
D03*
X9101D02*
D03*
X7991Y6369D02*
D03*
X8149D02*
D03*
X7991Y6211D02*
D03*
X8149D02*
D03*
X10149Y6961D02*
D03*
X9991D02*
D03*
X10149Y7119D02*
D03*
X9991D02*
D03*
X46929Y20351D02*
D03*
X46771D02*
D03*
X46929Y20509D02*
D03*
X46771D02*
D03*
D48*
X20318Y15083D02*
D03*
X20121D02*
D03*
X19924D02*
D03*
Y14020D02*
D03*
X20121D02*
D03*
X20318D02*
D03*
D49*
X19590Y14748D02*
D03*
Y14551D02*
D03*
Y14355D02*
D03*
X20653D02*
D03*
Y14551D02*
D03*
Y14748D02*
D03*
D50*
X20121Y14551D02*
D03*
D51*
X8843Y5652D02*
D03*
X9229D02*
D03*
X13403Y7510D02*
D03*
X13017D02*
D03*
X4010Y23660D02*
D03*
X4396D02*
D03*
D52*
X5480Y4783D02*
D03*
Y5157D02*
D03*
D53*
X5836Y5226D02*
D03*
Y4970D02*
D03*
Y4714D02*
D03*
X5124D02*
D03*
Y4970D02*
D03*
Y5226D02*
D03*
D54*
X5950Y15057D02*
D03*
Y15443D02*
D03*
X13210Y6786D02*
D03*
Y6400D02*
D03*
X4203Y22563D02*
D03*
Y22177D02*
D03*
D55*
X5606Y15506D02*
D03*
Y15250D02*
D03*
Y14994D02*
D03*
X6294D02*
D03*
Y15250D02*
D03*
Y15506D02*
D03*
X13554Y6337D02*
D03*
Y6593D02*
D03*
Y6849D02*
D03*
X12866D02*
D03*
Y6593D02*
D03*
Y6337D02*
D03*
X4548Y22114D02*
D03*
Y22370D02*
D03*
Y22626D02*
D03*
X3859D02*
D03*
Y22370D02*
D03*
Y22114D02*
D03*
D56*
X36970Y24038D02*
D03*
X37470D02*
D03*
X37970D02*
D03*
X38470D02*
D03*
X38970D02*
D03*
X36970Y22502D02*
D03*
X37470D02*
D03*
X37970D02*
D03*
X38470D02*
D03*
X38970D02*
D03*
X31500Y15018D02*
D03*
X32000D02*
D03*
X32500D02*
D03*
X33000D02*
D03*
X33500D02*
D03*
X31500Y13482D02*
D03*
X32000D02*
D03*
X32500D02*
D03*
X33000D02*
D03*
X33500D02*
D03*
X31000D02*
D03*
X30500D02*
D03*
X30000D02*
D03*
X29500D02*
D03*
X29000D02*
D03*
X31000Y15018D02*
D03*
X30500D02*
D03*
X30000D02*
D03*
X29500D02*
D03*
X29000D02*
D03*
D57*
X24675Y14000D02*
D03*
X26425D02*
D03*
X24675Y13000D02*
D03*
X26425D02*
D03*
X24675Y12000D02*
D03*
X26425D02*
D03*
X36625Y10000D02*
D03*
Y14000D02*
D03*
Y13000D02*
D03*
Y17000D02*
D03*
Y18000D02*
D03*
Y21000D02*
D03*
X38375Y10000D02*
D03*
Y13000D02*
D03*
X38375Y14000D02*
D03*
Y18000D02*
D03*
X38375Y17000D02*
D03*
X38375Y21000D02*
D03*
X36625Y11000D02*
D03*
Y12000D02*
D03*
Y15000D02*
D03*
Y16000D02*
D03*
Y19000D02*
D03*
Y20000D02*
D03*
X38375Y11000D02*
D03*
Y12000D02*
D03*
X38375Y15000D02*
D03*
X38375Y16000D02*
D03*
X38375Y19000D02*
D03*
X38375Y20000D02*
D03*
D58*
X6340Y9687D02*
D03*
Y10553D02*
D03*
X6850Y7547D02*
D03*
Y8413D02*
D03*
D59*
X40757Y3673D02*
D03*
X39970D02*
D03*
X40167D02*
D03*
X40364D02*
D03*
X40560D02*
D03*
D60*
X39616Y2767D02*
D03*
X41112D02*
D03*
D61*
X44263Y22635D02*
D03*
X41744D02*
D03*
D62*
X42531Y23600D02*
D03*
X43476D02*
D03*
D63*
X42492Y22547D02*
D03*
X42748D02*
D03*
X43515D02*
D03*
X43259D02*
D03*
X43004D02*
D03*
D64*
X42260Y15965D02*
D03*
Y15395D02*
D03*
D65*
X9394Y4474D02*
D03*
X9906D02*
D03*
Y3726D02*
D03*
X9650D02*
D03*
X9394D02*
D03*
X7666Y3726D02*
D03*
X7410D02*
D03*
X7154D02*
D03*
Y4474D02*
D03*
X7410D02*
D03*
X7666D02*
D03*
X8786Y3726D02*
D03*
X8530D02*
D03*
X8274D02*
D03*
Y4474D02*
D03*
X8530D02*
D03*
X8786D02*
D03*
D66*
X32114Y2799D02*
D03*
X31366D02*
D03*
Y3862D02*
D03*
X31740D02*
D03*
X32114D02*
D03*
D67*
X10026Y5494D02*
D03*
Y6006D02*
D03*
X10774D02*
D03*
Y5750D02*
D03*
Y5494D02*
D03*
D68*
X19259Y15826D02*
D03*
Y16574D02*
D03*
X20322D02*
D03*
Y16200D02*
D03*
Y15826D02*
D03*
D69*
X7776Y8177D02*
D03*
D70*
Y7960D02*
D03*
Y7763D02*
D03*
X8544D02*
D03*
Y7960D02*
D03*
Y8157D02*
D03*
D71*
X4360Y10793D02*
D03*
Y10596D02*
D03*
Y10399D02*
D03*
X5360D02*
D03*
Y10596D02*
D03*
Y10793D02*
D03*
D72*
X4360Y10143D02*
D03*
Y9887D02*
D03*
X5360D02*
D03*
Y10143D02*
D03*
D73*
X10981Y9766D02*
D03*
Y10022D02*
D03*
Y10278D02*
D03*
Y10534D02*
D03*
X8659Y9766D02*
D03*
Y10022D02*
D03*
Y10278D02*
D03*
Y10534D02*
D03*
D74*
X46784Y7820D02*
D03*
Y8320D02*
D03*
Y8820D02*
D03*
Y9320D02*
D03*
X44602Y7820D02*
D03*
Y8320D02*
D03*
Y8820D02*
D03*
Y9320D02*
D03*
D75*
X30073Y7034D02*
D03*
X29915D02*
D03*
X29758D02*
D03*
X29600D02*
D03*
Y7999D02*
D03*
X29758D02*
D03*
X29915D02*
D03*
X30073D02*
D03*
X24546Y7034D02*
D03*
X24389D02*
D03*
X24231D02*
D03*
X24074D02*
D03*
Y7999D02*
D03*
X24231D02*
D03*
X24389D02*
D03*
X24546D02*
D03*
X27310Y7034D02*
D03*
X27152D02*
D03*
X26995D02*
D03*
X26837D02*
D03*
Y7999D02*
D03*
X26995D02*
D03*
X27152D02*
D03*
X27310D02*
D03*
D76*
X29512Y7280D02*
D03*
Y7437D02*
D03*
Y7595D02*
D03*
Y7752D02*
D03*
X30161D02*
D03*
Y7595D02*
D03*
Y7437D02*
D03*
Y7280D02*
D03*
X23985D02*
D03*
Y7437D02*
D03*
Y7595D02*
D03*
Y7752D02*
D03*
X24635D02*
D03*
Y7595D02*
D03*
Y7437D02*
D03*
Y7280D02*
D03*
X26749D02*
D03*
Y7437D02*
D03*
Y7595D02*
D03*
Y7752D02*
D03*
X27398D02*
D03*
Y7595D02*
D03*
Y7437D02*
D03*
Y7280D02*
D03*
D77*
X8809Y2328D02*
D03*
X8120D02*
D03*
X7431D02*
D03*
Y872D02*
D03*
X8120D02*
D03*
X8809D02*
D03*
X34327Y1354D02*
D03*
X35016D02*
D03*
X35705D02*
D03*
Y2811D02*
D03*
X35016D02*
D03*
X34327D02*
D03*
D78*
X7775Y15711D02*
D03*
X8563Y14609D02*
D03*
X7775D02*
D03*
X10137D02*
D03*
X10925D02*
D03*
X8563Y15711D02*
D03*
X10137D02*
D03*
X10925D02*
D03*
D79*
X3160Y3193D02*
D03*
X1192D02*
D03*
X2176D02*
D03*
Y1027D02*
D03*
X1192D02*
D03*
X3160D02*
D03*
D80*
X30309Y985D02*
D03*
Y2560D02*
D03*
X27651Y985D02*
D03*
Y2560D02*
D03*
X48904Y985D02*
D03*
Y2560D02*
D03*
X46247Y985D02*
D03*
Y2560D02*
D03*
X44864Y985D02*
D03*
Y2560D02*
D03*
X42207Y985D02*
D03*
Y2560D02*
D03*
X46247Y6232D02*
D03*
Y4657D02*
D03*
X48904Y6232D02*
D03*
Y4657D02*
D03*
X42207Y6232D02*
D03*
Y4657D02*
D03*
X44864Y6232D02*
D03*
Y4657D02*
D03*
D81*
X6430Y19933D02*
D03*
Y20327D02*
D03*
Y16742D02*
D03*
Y17136D02*
D03*
D82*
X11602Y7761D02*
D03*
Y7939D02*
D03*
D83*
X11878Y7850D02*
D03*
D84*
X9641Y8991D02*
D03*
Y7809D02*
D03*
D85*
X9700Y8400D02*
D03*
D86*
X13709Y5352D02*
D03*
X13531D02*
D03*
D87*
X13620Y5628D02*
D03*
D88*
X4724Y20657D02*
D03*
Y19657D02*
D03*
Y17429D02*
D03*
Y16429D02*
D03*
Y8090D02*
D03*
Y7090D02*
D03*
D89*
X762Y22140D02*
D03*
Y22640D02*
D03*
Y23140D02*
D03*
Y23640D02*
D03*
Y24140D02*
D03*
X2298Y22140D02*
D03*
Y22640D02*
D03*
Y23140D02*
D03*
Y23640D02*
D03*
Y24140D02*
D03*
D90*
X31000Y21423D02*
D03*
Y22577D02*
D03*
X27000Y21423D02*
D03*
X30000D02*
D03*
X29000Y21423D02*
D03*
X34000Y21423D02*
D03*
X33000D02*
D03*
X27000Y22577D02*
D03*
X30000D02*
D03*
X29000D02*
D03*
X34000D02*
D03*
X33000D02*
D03*
X28000Y21423D02*
D03*
X32000D02*
D03*
X28000Y22577D02*
D03*
X32000D02*
D03*
X7400Y21423D02*
D03*
X13400D02*
D03*
X7400Y22577D02*
D03*
X13400D02*
D03*
X8400Y21423D02*
D03*
X9400Y21423D02*
D03*
X11400D02*
D03*
X12400D02*
D03*
X15400D02*
D03*
X16400D02*
D03*
X8400Y22577D02*
D03*
X9400D02*
D03*
X11400D02*
D03*
X12400D02*
D03*
X15400D02*
D03*
X16400D02*
D03*
X10400Y21423D02*
D03*
X14400Y21423D02*
D03*
X10400Y22577D02*
D03*
X14400D02*
D03*
X22000Y21423D02*
D03*
Y22577D02*
D03*
X18000Y21423D02*
D03*
X21000D02*
D03*
X20000Y21423D02*
D03*
X25000Y21423D02*
D03*
X24000D02*
D03*
X18000Y22577D02*
D03*
X21000D02*
D03*
X20000D02*
D03*
X25000D02*
D03*
X24000D02*
D03*
X19000Y21423D02*
D03*
X23000D02*
D03*
X19000Y22577D02*
D03*
X23000D02*
D03*
X23000Y3577D02*
D03*
X23000Y2423D02*
D03*
X25000Y3577D02*
D03*
X24000D02*
D03*
X21000D02*
D03*
X20000D02*
D03*
X25000Y2423D02*
D03*
X24000D02*
D03*
X21000D02*
D03*
X20000D02*
D03*
X22000Y3577D02*
D03*
Y2423D02*
D03*
X14000Y3577D02*
D03*
Y2423D02*
D03*
X18000Y3577D02*
D03*
X15000D02*
D03*
X16000Y3577D02*
D03*
X11000Y3577D02*
D03*
X12000D02*
D03*
X18000Y2423D02*
D03*
X15000D02*
D03*
X16000D02*
D03*
X11000D02*
D03*
X12000D02*
D03*
X17000Y3577D02*
D03*
X13000D02*
D03*
X17000Y2423D02*
D03*
X13000D02*
D03*
X15400Y18577D02*
D03*
Y17423D02*
D03*
X16400Y18577D02*
D03*
Y17423D02*
D03*
X7400D02*
D03*
Y18577D02*
D03*
X11400D02*
D03*
Y17423D02*
D03*
X12400Y18577D02*
D03*
Y17423D02*
D03*
X10400Y18577D02*
D03*
Y17423D02*
D03*
X9400Y18577D02*
D03*
Y17423D02*
D03*
X8400D02*
D03*
Y18577D02*
D03*
X14400Y17423D02*
D03*
Y18577D02*
D03*
X13400Y17423D02*
D03*
Y18577D02*
D03*
X17400Y17423D02*
D03*
Y18577D02*
D03*
X18400Y17423D02*
D03*
Y18577D02*
D03*
X19400Y17423D02*
D03*
Y18577D02*
D03*
D91*
X12530Y7935D02*
D03*
Y7385D02*
D03*
D92*
X51313Y21087D02*
D03*
X50763D02*
D03*
X49313D02*
D03*
X48763D02*
D03*
X51313Y22447D02*
D03*
X50763D02*
D03*
X49313D02*
D03*
X48763D02*
D03*
D93*
X42875Y14484D02*
D03*
Y15015D02*
D03*
X32110Y2146D02*
D03*
Y1614D02*
D03*
X41864Y20825D02*
D03*
Y20294D02*
D03*
X44007Y17370D02*
D03*
Y16838D02*
D03*
X43564Y17370D02*
D03*
Y16838D02*
D03*
X43338Y14858D02*
D03*
Y14326D02*
D03*
X3970Y9724D02*
D03*
Y10256D02*
D03*
X3500Y9724D02*
D03*
Y10256D02*
D03*
D94*
X47137Y17112D02*
D03*
X46605D02*
D03*
X45513Y17466D02*
D03*
X44981D02*
D03*
X43229Y15468D02*
D03*
X43761D02*
D03*
X3660Y11440D02*
D03*
X4192D02*
D03*
X5226Y9280D02*
D03*
X4694D02*
D03*
X6886Y7070D02*
D03*
X6354D02*
D03*
D95*
X484Y4203D02*
D03*
Y5857D02*
D03*
D96*
X2010Y4833D02*
D03*
Y5227D02*
D03*
D97*
X2365Y13760D02*
D03*
Y11240D02*
D03*
D98*
X1400Y12028D02*
D03*
Y12972D02*
D03*
D99*
X2454Y11988D02*
D03*
Y12244D02*
D03*
Y13012D02*
D03*
Y12756D02*
D03*
Y12500D02*
D03*
D100*
X49793Y14711D02*
D03*
Y15518D02*
D03*
X50541D02*
D03*
Y14711D02*
D03*
D101*
X49710Y15115D02*
D03*
X50623D02*
D03*
D102*
X1613Y9967D02*
D03*
X1239D02*
D03*
D103*
X40557Y23866D02*
D03*
Y23492D02*
D03*
X2900Y11190D02*
D03*
Y11564D02*
D03*
X41474Y20263D02*
D03*
Y20637D02*
D03*
X2860Y15227D02*
D03*
Y14853D02*
D03*
X45217Y21923D02*
D03*
Y22297D02*
D03*
D104*
X9940Y11553D02*
D03*
Y11884D02*
D03*
X9300Y11553D02*
D03*
Y11884D02*
D03*
X10260Y11553D02*
D03*
Y11884D02*
D03*
X9620Y11553D02*
D03*
Y11884D02*
D03*
D105*
X7680Y9810D02*
D03*
D106*
Y10736D02*
D03*
D107*
X3791Y13034D02*
D03*
D108*
X3122D02*
D03*
Y12226D02*
D03*
X3870D02*
D03*
D109*
X43526Y20634D02*
D03*
D110*
Y21303D02*
D03*
X42719D02*
D03*
Y20555D02*
D03*
D111*
X44578Y17210D02*
D03*
Y16816D02*
D03*
X46202Y16836D02*
D03*
Y17230D02*
D03*
X51050Y15243D02*
D03*
Y15637D02*
D03*
X18530Y15693D02*
D03*
Y16087D02*
D03*
D112*
X20172Y12452D02*
D03*
Y12255D02*
D03*
Y12059D02*
D03*
Y11862D02*
D03*
Y11665D02*
D03*
Y11468D02*
D03*
Y11271D02*
D03*
Y11074D02*
D03*
Y10877D02*
D03*
Y10681D02*
D03*
Y10484D02*
D03*
Y10287D02*
D03*
Y10090D02*
D03*
Y9893D02*
D03*
Y9696D02*
D03*
Y9499D02*
D03*
Y9303D02*
D03*
Y9106D02*
D03*
Y8909D02*
D03*
Y8712D02*
D03*
Y8515D02*
D03*
Y8318D02*
D03*
Y8122D02*
D03*
Y7925D02*
D03*
Y7728D02*
D03*
X14208D02*
D03*
Y7925D02*
D03*
Y8122D02*
D03*
Y8318D02*
D03*
Y8515D02*
D03*
Y8712D02*
D03*
Y8909D02*
D03*
Y9106D02*
D03*
Y9303D02*
D03*
Y9499D02*
D03*
Y9696D02*
D03*
Y9893D02*
D03*
Y10090D02*
D03*
Y10287D02*
D03*
Y10484D02*
D03*
Y10681D02*
D03*
Y10877D02*
D03*
Y11074D02*
D03*
Y11271D02*
D03*
Y11468D02*
D03*
Y11665D02*
D03*
Y11862D02*
D03*
Y12059D02*
D03*
Y12255D02*
D03*
Y12452D02*
D03*
D113*
X19552Y7108D02*
D03*
X19355D02*
D03*
X19158D02*
D03*
X18962D02*
D03*
X18765D02*
D03*
X18568D02*
D03*
X18371D02*
D03*
X18174D02*
D03*
X17977D02*
D03*
X17781D02*
D03*
X17584D02*
D03*
X17387D02*
D03*
X17190D02*
D03*
X16993D02*
D03*
X16796D02*
D03*
X16599D02*
D03*
X16403D02*
D03*
X16206D02*
D03*
X16009D02*
D03*
X15812D02*
D03*
X15615D02*
D03*
X15418D02*
D03*
X15221D02*
D03*
X15025D02*
D03*
X14828D02*
D03*
Y13072D02*
D03*
X15025D02*
D03*
X15221D02*
D03*
X15418D02*
D03*
X15615D02*
D03*
X15812D02*
D03*
X16009D02*
D03*
X16206D02*
D03*
X16403D02*
D03*
X16599D02*
D03*
X16796D02*
D03*
X16993D02*
D03*
X17190D02*
D03*
X17387D02*
D03*
X17584D02*
D03*
X17781D02*
D03*
X17977D02*
D03*
X18174D02*
D03*
X18371D02*
D03*
X18568D02*
D03*
X18765D02*
D03*
X18962D02*
D03*
X19158D02*
D03*
X19355D02*
D03*
X19552D02*
D03*
D114*
X44440Y15980D02*
D03*
Y13460D02*
D03*
X46960D02*
D03*
Y15980D02*
D03*
D115*
X46566D02*
D03*
X46723Y13460D02*
D03*
X46566D02*
D03*
X46802Y13618D02*
D03*
Y15822D02*
D03*
X44440Y13696D02*
D03*
X46409Y13460D02*
D03*
X46251D02*
D03*
X46094D02*
D03*
X45936D02*
D03*
X45779D02*
D03*
X45621D02*
D03*
X45464D02*
D03*
X45306D02*
D03*
X45149D02*
D03*
X44991D02*
D03*
X44834D02*
D03*
X44676D02*
D03*
X46645Y13618D02*
D03*
X46487D02*
D03*
X46330D02*
D03*
X46172D02*
D03*
X46015D02*
D03*
X45857D02*
D03*
X45700D02*
D03*
X45542D02*
D03*
X45385D02*
D03*
X45227D02*
D03*
X45070D02*
D03*
X44912D02*
D03*
X44755D02*
D03*
X44597D02*
D03*
Y13775D02*
D03*
Y13933D02*
D03*
X44440Y13854D02*
D03*
Y14011D02*
D03*
X44597Y14090D02*
D03*
X46960Y14169D02*
D03*
X44440D02*
D03*
X44597Y14248D02*
D03*
X46960Y14326D02*
D03*
X44440D02*
D03*
X44597Y14405D02*
D03*
X46960Y14484D02*
D03*
X44440D02*
D03*
X44597Y14563D02*
D03*
X46960Y14641D02*
D03*
X44440D02*
D03*
X44597Y14720D02*
D03*
X46960Y14799D02*
D03*
X44440D02*
D03*
X44597Y14877D02*
D03*
X46960Y14956D02*
D03*
X44440D02*
D03*
X44597Y15035D02*
D03*
X46960Y15114D02*
D03*
X44440D02*
D03*
X44597Y15192D02*
D03*
X46960Y15271D02*
D03*
X44440D02*
D03*
X44597Y15350D02*
D03*
X46960Y15429D02*
D03*
X44440D02*
D03*
X44597Y15507D02*
D03*
X46960Y15586D02*
D03*
X44440D02*
D03*
X44597Y15665D02*
D03*
X46960Y15744D02*
D03*
X44440D02*
D03*
X46172Y15822D02*
D03*
X46015D02*
D03*
X45857D02*
D03*
X45700D02*
D03*
X45542D02*
D03*
X45385D02*
D03*
X45227D02*
D03*
X45070D02*
D03*
X44912D02*
D03*
X44755D02*
D03*
X44597D02*
D03*
X46409Y15980D02*
D03*
X46251D02*
D03*
X46094D02*
D03*
X45936D02*
D03*
X45779D02*
D03*
X45621D02*
D03*
X45464D02*
D03*
X44834D02*
D03*
X46330Y15822D02*
D03*
X46487D02*
D03*
X46645D02*
D03*
X46960Y14011D02*
D03*
Y13854D02*
D03*
Y13696D02*
D03*
D116*
X48279Y16413D02*
D03*
X48731D02*
D03*
Y15842D02*
D03*
X48279D02*
D03*
D117*
X50973Y23600D02*
D03*
X5411Y1120D02*
D03*
M02*
