G04*
G04 #@! TF.GenerationSoftware,Altium Limited,Altium Designer,19.1.7 (138)*
G04*
G04 Layer_Color=26005*
%FSLAX24Y24*%
%MOIN*%
G70*
G01*
G75*
%ADD21C,0.0080*%
%ADD210C,0.0065*%
%ADD211C,0.0065*%
%ADD227C,0.0300*%
D21*
X47027Y15890D02*
X46760D01*
Y15690D01*
X46893Y15757D01*
X46960D01*
X47027Y15690D01*
Y15557D01*
X46960Y15490D01*
X46827D01*
X46760Y15557D01*
X47160Y15823D02*
X47227Y15890D01*
X47360D01*
X47426Y15823D01*
Y15557D01*
X47360Y15490D01*
X47227D01*
X47160Y15557D01*
Y15823D01*
X47626Y15490D02*
X47760D01*
X47826Y15557D01*
Y15690D01*
X47760Y15757D01*
X47626D01*
X47560Y15690D01*
Y15557D01*
X47626Y15490D01*
X47960Y15890D02*
Y15490D01*
Y15690D01*
X48026Y15757D01*
X48160D01*
X48226Y15690D01*
Y15490D01*
X48359D02*
Y15757D01*
X48426D01*
X48493Y15690D01*
Y15490D01*
Y15690D01*
X48559Y15757D01*
X48626Y15690D01*
Y15490D01*
X49159D02*
X49293D01*
X49226D01*
Y15757D01*
X49159D01*
X49492Y15490D02*
Y15757D01*
X49559D01*
X49626Y15690D01*
Y15490D01*
Y15690D01*
X49692Y15757D01*
X49759Y15690D01*
Y15490D01*
X49892Y15357D02*
Y15757D01*
X50092D01*
X50159Y15690D01*
Y15557D01*
X50092Y15490D01*
X49892D01*
X50492D02*
X50359D01*
X50292Y15557D01*
Y15690D01*
X50359Y15757D01*
X50492D01*
X50559Y15690D01*
Y15623D01*
X50292D01*
X50959Y15890D02*
Y15490D01*
X50759D01*
X50692Y15557D01*
Y15690D01*
X50759Y15757D01*
X50959D01*
X51159D02*
X51292D01*
X51359Y15690D01*
Y15490D01*
X51159D01*
X51092Y15557D01*
X51159Y15623D01*
X51359D01*
X51492Y15490D02*
Y15757D01*
X51692D01*
X51758Y15690D01*
Y15490D01*
X52158Y15757D02*
X51958D01*
X51892Y15690D01*
Y15557D01*
X51958Y15490D01*
X52158D01*
X52491D02*
X52358D01*
X52292Y15557D01*
Y15690D01*
X52358Y15757D01*
X52491D01*
X52558Y15690D01*
Y15623D01*
X52292D01*
X6320Y12667D02*
X6387Y12600D01*
X6520D01*
X6587Y12667D01*
Y12933D01*
X6520Y13000D01*
X6387D01*
X6320Y12933D01*
Y12867D01*
X6387Y12800D01*
X6587D01*
X6720Y12933D02*
X6787Y13000D01*
X6920D01*
X6986Y12933D01*
Y12667D01*
X6920Y12600D01*
X6787D01*
X6720Y12667D01*
Y12933D01*
X7186Y12600D02*
X7320D01*
X7386Y12667D01*
Y12800D01*
X7320Y12867D01*
X7186D01*
X7120Y12800D01*
Y12667D01*
X7186Y12600D01*
X7520Y13000D02*
Y12600D01*
Y12800D01*
X7586Y12867D01*
X7720D01*
X7786Y12800D01*
Y12600D01*
X7919D02*
Y12867D01*
X7986D01*
X8053Y12800D01*
Y12600D01*
Y12800D01*
X8119Y12867D01*
X8186Y12800D01*
Y12600D01*
X8986Y13000D02*
Y12600D01*
X8786D01*
X8719Y12667D01*
Y12800D01*
X8786Y12867D01*
X8986D01*
X9119Y12600D02*
X9252D01*
X9186D01*
Y12867D01*
X9119D01*
X9519Y12600D02*
Y12933D01*
Y12800D01*
X9452D01*
X9586D01*
X9519D01*
Y12933D01*
X9586Y13000D01*
X9852Y12600D02*
Y12933D01*
Y12800D01*
X9786D01*
X9919D01*
X9852D01*
Y12933D01*
X9919Y13000D01*
X10319Y12600D02*
X10185D01*
X10119Y12667D01*
Y12800D01*
X10185Y12867D01*
X10319D01*
X10385Y12800D01*
Y12733D01*
X10119D01*
X10519Y12867D02*
Y12600D01*
Y12733D01*
X10585Y12800D01*
X10652Y12867D01*
X10719D01*
X11118Y12600D02*
X10985D01*
X10919Y12667D01*
Y12800D01*
X10985Y12867D01*
X11118D01*
X11185Y12800D01*
Y12733D01*
X10919D01*
X11318Y12600D02*
Y12867D01*
X11518D01*
X11585Y12800D01*
Y12600D01*
X11718D02*
X11918D01*
X11985Y12667D01*
X11918Y12733D01*
X11785D01*
X11718Y12800D01*
X11785Y12867D01*
X11985D01*
X12118Y12600D02*
X12251D01*
X12185D01*
Y12867D01*
X12118D01*
X12518D02*
X12651D01*
X12718Y12800D01*
Y12600D01*
X12518D01*
X12451Y12667D01*
X12518Y12733D01*
X12718D01*
X12851Y12600D02*
X12985D01*
X12918D01*
Y13000D01*
X12851D01*
X13584Y12600D02*
X13718D01*
X13651D01*
Y12867D01*
X13584D01*
X13918Y12600D02*
Y12867D01*
X13984D01*
X14051Y12800D01*
Y12600D01*
Y12800D01*
X14117Y12867D01*
X14184Y12800D01*
Y12600D01*
X14317Y12467D02*
Y12867D01*
X14517D01*
X14584Y12800D01*
Y12667D01*
X14517Y12600D01*
X14317D01*
X14917D02*
X14784D01*
X14717Y12667D01*
Y12800D01*
X14784Y12867D01*
X14917D01*
X14984Y12800D01*
Y12733D01*
X14717D01*
X15384Y13000D02*
Y12600D01*
X15184D01*
X15117Y12667D01*
Y12800D01*
X15184Y12867D01*
X15384D01*
X15584D02*
X15717D01*
X15784Y12800D01*
Y12600D01*
X15584D01*
X15517Y12667D01*
X15584Y12733D01*
X15784D01*
X15917Y12600D02*
Y12867D01*
X16117D01*
X16183Y12800D01*
Y12600D01*
X16583Y12867D02*
X16383D01*
X16317Y12800D01*
Y12667D01*
X16383Y12600D01*
X16583D01*
X16917D02*
X16783D01*
X16717Y12667D01*
Y12800D01*
X16783Y12867D01*
X16917D01*
X16983Y12800D01*
Y12733D01*
X16717D01*
X38310Y22817D02*
X38377Y22750D01*
X38510D01*
X38577Y22817D01*
Y23083D01*
X38510Y23150D01*
X38377D01*
X38310Y23083D01*
Y23017D01*
X38377Y22950D01*
X38577D01*
X38710Y23083D02*
X38777Y23150D01*
X38910D01*
X38976Y23083D01*
Y22817D01*
X38910Y22750D01*
X38777D01*
X38710Y22817D01*
Y23083D01*
X39176Y22750D02*
X39310D01*
X39376Y22817D01*
Y22950D01*
X39310Y23017D01*
X39176D01*
X39110Y22950D01*
Y22817D01*
X39176Y22750D01*
X39510Y23150D02*
Y22750D01*
Y22950D01*
X39576Y23017D01*
X39710D01*
X39776Y22950D01*
Y22750D01*
X39909D02*
Y23017D01*
X39976D01*
X40043Y22950D01*
Y22750D01*
Y22950D01*
X40109Y23017D01*
X40176Y22950D01*
Y22750D01*
X40976Y23150D02*
Y22750D01*
X40776D01*
X40709Y22817D01*
Y22950D01*
X40776Y23017D01*
X40976D01*
X41109Y22750D02*
X41242D01*
X41176D01*
Y23017D01*
X41109D01*
X41509Y22750D02*
Y23083D01*
Y22950D01*
X41442D01*
X41576D01*
X41509D01*
Y23083D01*
X41576Y23150D01*
X41842Y22750D02*
Y23083D01*
Y22950D01*
X41776D01*
X41909D01*
X41842D01*
Y23083D01*
X41909Y23150D01*
X42309Y22750D02*
X42175D01*
X42109Y22817D01*
Y22950D01*
X42175Y23017D01*
X42309D01*
X42375Y22950D01*
Y22883D01*
X42109D01*
X42509Y23017D02*
Y22750D01*
Y22883D01*
X42575Y22950D01*
X42642Y23017D01*
X42709D01*
X43108Y22750D02*
X42975D01*
X42909Y22817D01*
Y22950D01*
X42975Y23017D01*
X43108D01*
X43175Y22950D01*
Y22883D01*
X42909D01*
X43308Y22750D02*
Y23017D01*
X43508D01*
X43575Y22950D01*
Y22750D01*
X43708D02*
X43908D01*
X43975Y22817D01*
X43908Y22883D01*
X43775D01*
X43708Y22950D01*
X43775Y23017D01*
X43975D01*
X44108Y22750D02*
X44241D01*
X44175D01*
Y23017D01*
X44108D01*
X44508D02*
X44641D01*
X44708Y22950D01*
Y22750D01*
X44508D01*
X44441Y22817D01*
X44508Y22883D01*
X44708D01*
X44841Y22750D02*
X44975D01*
X44908D01*
Y23150D01*
X44841D01*
X45574Y22750D02*
X45708D01*
X45641D01*
Y23017D01*
X45574D01*
X45908Y22750D02*
Y23017D01*
X45974D01*
X46041Y22950D01*
Y22750D01*
Y22950D01*
X46107Y23017D01*
X46174Y22950D01*
Y22750D01*
X46307Y22617D02*
Y23017D01*
X46507D01*
X46574Y22950D01*
Y22817D01*
X46507Y22750D01*
X46307D01*
X46907D02*
X46774D01*
X46707Y22817D01*
Y22950D01*
X46774Y23017D01*
X46907D01*
X46974Y22950D01*
Y22883D01*
X46707D01*
X47374Y23150D02*
Y22750D01*
X47174D01*
X47107Y22817D01*
Y22950D01*
X47174Y23017D01*
X47374D01*
X47574D02*
X47707D01*
X47774Y22950D01*
Y22750D01*
X47574D01*
X47507Y22817D01*
X47574Y22883D01*
X47774D01*
X47907Y22750D02*
Y23017D01*
X48107D01*
X48173Y22950D01*
Y22750D01*
X48573Y23017D02*
X48373D01*
X48307Y22950D01*
Y22817D01*
X48373Y22750D01*
X48573D01*
X48907D02*
X48773D01*
X48707Y22817D01*
Y22950D01*
X48773Y23017D01*
X48907D01*
X48973Y22950D01*
Y22883D01*
X48707D01*
D210*
X44710Y16042D02*
G03*
X44649Y16189I-208J0D01*
G01*
X44710Y15931D02*
G03*
X44755Y15822I154J0D01*
G01*
X44649Y16189D02*
G03*
X44260Y16350I-389J-389D01*
G01*
X43254Y16556D02*
G03*
X43752Y16350I498J499D01*
G01*
X43190Y16710D02*
G03*
X43254Y16556I217J0D01*
G01*
X43230Y16888D02*
G03*
X43190Y16791I97J-97D01*
G01*
X43155Y16457D02*
G03*
X43752Y16210I597J597D01*
G01*
X43050Y16710D02*
G03*
X43155Y16457I357J0D01*
G01*
X43050Y16791D02*
G03*
X43010Y16888I-137J0D01*
G01*
X44597Y15975D02*
G03*
X44550Y16090I-162J0D01*
G01*
D02*
G03*
X44260Y16210I-290J-290D01*
G01*
X43752Y16350D02*
X44260D01*
X43190Y16710D02*
Y16791D01*
X44710Y15931D02*
Y16042D01*
X43752Y16210D02*
X44260D01*
X43050Y16710D02*
Y16791D01*
X44597Y15822D02*
Y15975D01*
Y15822D02*
X44600Y15825D01*
D211*
X4865Y12550D02*
G03*
X5670Y12883I0J1138D01*
G01*
X6295Y13320D02*
G03*
X5974Y13187I0J-454D01*
G01*
X3122Y12226D02*
G03*
X2462Y12500I-660J-660D01*
G01*
X5948Y13161D02*
G03*
X5946Y13159I376J-380D01*
G01*
X12957Y13320D02*
G03*
X13320Y13470I-0J514D01*
G01*
X17798Y14303D02*
G03*
X17670Y14483I-182J7D01*
G01*
X3780Y12550D02*
G03*
X3209Y12314I0J-807D01*
G01*
X17573Y14656D02*
G03*
X17044Y15192I-534J2D01*
G01*
X17572Y14651D02*
G03*
X17670Y14483I182J-7D01*
G01*
X15321Y15192D02*
G03*
X14838Y14991I4J-688D01*
G01*
X17772Y14670D02*
G03*
X17090Y15362I-688J3D01*
G01*
X4864Y12690D02*
G03*
X5571Y12983I0J1000D01*
G01*
X6341Y13461D02*
G03*
X5842Y13254I0J-705D01*
G01*
X3243Y12912D02*
G03*
X3780Y12690I537J537D01*
G01*
X12857Y13461D02*
G03*
X13220Y13611I-0J514D01*
G01*
X15252Y15364D02*
G03*
X14769Y15162I4J-688D01*
G01*
X2454Y12756D02*
G03*
X3121Y13032I0J944D01*
G01*
X43257Y21655D02*
G03*
X43315Y21514I200J0D01*
G01*
X43010Y17112D02*
G03*
X43050Y17209I-97J97D01*
G01*
X42943Y21514D02*
G03*
X43002Y21655I-141J141D01*
G01*
X43050Y20558D02*
G03*
X42757Y21265I-1000J0D01*
G01*
X43190Y17209D02*
G03*
X43230Y17112I137J0D01*
G01*
X43483Y21260D02*
G03*
X43190Y20553I707J-707D01*
G01*
X5824Y13038D02*
X5824D01*
X12957Y13320D02*
X12957D01*
X5670Y12883D02*
X5824Y13038D01*
X6295Y13320D02*
X12957D01*
X2454Y12500D02*
X2462D01*
X5824Y13038D02*
X5946Y13159D01*
X13320Y13470D02*
X14839Y14990D01*
X3780Y12550D02*
X4865D01*
X3122Y12226D02*
X3209Y12314D01*
X3122Y12226D02*
X3122Y12226D01*
X5948Y13161D02*
X5948Y13161D01*
X15321Y15192D02*
X17039D01*
X12857Y13461D02*
X12857D01*
X6341D02*
X12857D01*
X15252Y15364D02*
X17090D01*
X3121Y13032D02*
X3122Y13034D01*
X5743Y13155D02*
Y13155D01*
X3122Y13034D02*
X3243Y12912D01*
X13220Y13611D02*
X14770Y15161D01*
X5743Y13155D02*
X5842Y13254D01*
X5571Y12983D02*
X5743Y13155D01*
X3780Y12690D02*
X4864D01*
X3780Y12690D02*
Y12690D01*
X43483Y21260D02*
X43526Y21303D01*
X43190Y17209D02*
Y19913D01*
X43315Y21514D02*
X43526Y21303D01*
X43257Y21655D02*
Y22644D01*
X42719Y21303D02*
X42757Y21265D01*
X43050Y17209D02*
Y20558D01*
X42728Y21299D02*
X42943Y21514D01*
X43190Y19913D02*
Y20553D01*
X43002Y21655D02*
Y22640D01*
D227*
X47550Y15114D02*
X49709D01*
M02*
