G04*
G04 #@! TF.GenerationSoftware,Altium Limited,Altium Designer,19.1.7 (138)*
G04*
G04 Layer_Color=16711935*
%FSLAX24Y24*%
%MOIN*%
G70*
G01*
G75*
%ADD127C,0.0454*%
%ADD172R,0.0462X0.0922*%
%ADD202C,0.0787*%
%ADD203R,0.0651X0.0651*%
%ADD204C,0.0651*%
%ADD205O,0.0414X0.0690*%
%ADD206C,0.0761*%
%ADD207O,0.0690X0.0414*%
%ADD208C,0.1320*%
%ADD209R,0.0651X0.0651*%
%ADD254R,0.1714X0.1320*%
%ADD255R,0.0934X0.0462*%
D127*
X12580Y6030D02*
D03*
D172*
X15400Y17423D02*
D03*
Y18577D02*
D03*
X16400Y17423D02*
D03*
Y18577D02*
D03*
X7400D02*
D03*
Y17423D02*
D03*
X11400D02*
D03*
Y18577D02*
D03*
X12400Y17423D02*
D03*
Y18577D02*
D03*
X10400Y17423D02*
D03*
Y18577D02*
D03*
X9400Y17423D02*
D03*
Y18577D02*
D03*
X8400D02*
D03*
Y17423D02*
D03*
X14400Y18577D02*
D03*
Y17423D02*
D03*
X13400Y18577D02*
D03*
Y17423D02*
D03*
X17400Y18577D02*
D03*
Y17423D02*
D03*
X18400Y18577D02*
D03*
Y17423D02*
D03*
X10400Y22577D02*
D03*
Y21423D02*
D03*
X9400Y22577D02*
D03*
Y21423D02*
D03*
X15400Y22577D02*
D03*
Y21423D02*
D03*
X14400D02*
D03*
Y22577D02*
D03*
X13400Y21423D02*
D03*
Y22577D02*
D03*
X11400Y21423D02*
D03*
Y22577D02*
D03*
X12400Y21423D02*
D03*
Y22577D02*
D03*
X16400D02*
D03*
Y21423D02*
D03*
X7400D02*
D03*
Y22577D02*
D03*
X8400Y21423D02*
D03*
Y22577D02*
D03*
X34000Y21423D02*
D03*
Y22577D02*
D03*
X30000D02*
D03*
Y21423D02*
D03*
X29000Y22577D02*
D03*
Y21423D02*
D03*
X31000Y22577D02*
D03*
Y21423D02*
D03*
X32000Y22577D02*
D03*
Y21423D02*
D03*
X33000D02*
D03*
Y22577D02*
D03*
X27000Y21423D02*
D03*
Y22577D02*
D03*
X28000Y21423D02*
D03*
Y22577D02*
D03*
X25000Y21423D02*
D03*
Y22577D02*
D03*
X21000D02*
D03*
Y21423D02*
D03*
X20000Y22577D02*
D03*
Y21423D02*
D03*
X22000Y22577D02*
D03*
Y21423D02*
D03*
X23000Y22577D02*
D03*
Y21423D02*
D03*
X24000D02*
D03*
Y22577D02*
D03*
X18000Y21423D02*
D03*
Y22577D02*
D03*
X19000Y21423D02*
D03*
Y22577D02*
D03*
X11000Y3577D02*
D03*
Y2423D02*
D03*
X15000D02*
D03*
Y3577D02*
D03*
X16000Y2423D02*
D03*
Y3577D02*
D03*
X14000Y2423D02*
D03*
Y3577D02*
D03*
X13000Y2423D02*
D03*
Y3577D02*
D03*
X12000D02*
D03*
Y2423D02*
D03*
X18000Y3577D02*
D03*
Y2423D02*
D03*
X17000Y3577D02*
D03*
Y2423D02*
D03*
X21000D02*
D03*
Y3577D02*
D03*
X22000D02*
D03*
Y2423D02*
D03*
X23000Y3577D02*
D03*
Y2423D02*
D03*
X25000Y3577D02*
D03*
Y2423D02*
D03*
X24000Y3577D02*
D03*
Y2423D02*
D03*
X20000D02*
D03*
Y3577D02*
D03*
D202*
X50973Y23600D02*
D03*
X5411Y1120D02*
D03*
D203*
X3220Y5490D02*
D03*
X12000Y9000D02*
D03*
D204*
X2950Y21010D02*
D03*
Y18080D02*
D03*
X7150Y2320D02*
D03*
X1160Y19820D02*
D03*
X1837Y6713D02*
D03*
X1170Y18080D02*
D03*
X12500Y13940D02*
D03*
X14540Y14080D02*
D03*
X10410Y4640D02*
D03*
X4540Y4010D02*
D03*
X2589Y3193D02*
D03*
X2080Y4833D02*
D03*
X43190Y19913D02*
D03*
X43050Y21204D02*
D03*
X40980Y21410D02*
D03*
X43684Y22199D02*
D03*
X22869Y15219D02*
D03*
X24050D02*
D03*
Y16400D02*
D03*
X22869Y17581D02*
D03*
X24050D02*
D03*
X36479Y6220D02*
D03*
X37660D02*
D03*
X38841D02*
D03*
X36479Y7401D02*
D03*
X37660D02*
D03*
X38841D02*
D03*
X22346Y9530D02*
D03*
X23527D02*
D03*
X28451Y5730D02*
D03*
X21280Y5800D02*
D03*
X46210Y19920D02*
D03*
X33040Y4100D02*
D03*
X27350Y15750D02*
D03*
X40022Y6220D02*
D03*
X41203D02*
D03*
X27270Y5730D02*
D03*
X24708Y9506D02*
D03*
X22700Y6630D02*
D03*
X27070Y9506D02*
D03*
X25889D02*
D03*
X3220Y4490D02*
D03*
X38580Y1270D02*
D03*
X49250Y24000D02*
D03*
X12000Y10000D02*
D03*
Y11000D02*
D03*
X7400Y24500D02*
D03*
Y23500D02*
D03*
X8400D02*
D03*
Y24500D02*
D03*
X10400D02*
D03*
Y23500D02*
D03*
X11400D02*
D03*
Y24500D02*
D03*
X13400Y23500D02*
D03*
Y24500D02*
D03*
X16400Y23500D02*
D03*
X15400Y24500D02*
D03*
Y23500D02*
D03*
X14400Y24500D02*
D03*
Y23500D02*
D03*
X12400Y24500D02*
D03*
Y23500D02*
D03*
X9400D02*
D03*
Y24500D02*
D03*
X27000D02*
D03*
Y23500D02*
D03*
X30000D02*
D03*
Y24500D02*
D03*
X32000Y23500D02*
D03*
Y24500D02*
D03*
X33000Y23500D02*
D03*
Y24500D02*
D03*
X34000Y23500D02*
D03*
X31000Y24500D02*
D03*
Y23500D02*
D03*
X29000Y24500D02*
D03*
Y23500D02*
D03*
X28000D02*
D03*
Y24500D02*
D03*
X18000D02*
D03*
Y23500D02*
D03*
X21000D02*
D03*
Y24500D02*
D03*
X23000Y23500D02*
D03*
Y24500D02*
D03*
X24000Y23500D02*
D03*
Y24500D02*
D03*
X25000Y23500D02*
D03*
X22000Y24500D02*
D03*
Y23500D02*
D03*
X20000Y24500D02*
D03*
Y23500D02*
D03*
X19000D02*
D03*
Y24500D02*
D03*
X18000Y500D02*
D03*
Y1500D02*
D03*
X15000D02*
D03*
Y500D02*
D03*
X13000Y1500D02*
D03*
Y500D02*
D03*
X12000Y1500D02*
D03*
Y500D02*
D03*
X11000Y1500D02*
D03*
X14000Y500D02*
D03*
Y1500D02*
D03*
X16000Y500D02*
D03*
Y1500D02*
D03*
X17000D02*
D03*
Y500D02*
D03*
X25000Y1500D02*
D03*
Y500D02*
D03*
X23000Y1500D02*
D03*
Y500D02*
D03*
X20000Y1500D02*
D03*
X21000Y500D02*
D03*
Y1500D02*
D03*
X22000Y500D02*
D03*
Y1500D02*
D03*
X24000Y500D02*
D03*
Y1500D02*
D03*
D205*
X44303Y23600D02*
D03*
X41704D02*
D03*
D206*
X2954Y20157D02*
D03*
Y16929D02*
D03*
Y7590D02*
D03*
D207*
X1400Y13799D02*
D03*
Y11201D02*
D03*
D208*
X50500Y18250D02*
D03*
X26000Y5000D02*
D03*
Y16000D02*
D03*
X5500Y3000D02*
D03*
X6000Y22000D02*
D03*
X38000Y3000D02*
D03*
X35500Y22000D02*
D03*
D209*
X16400Y24500D02*
D03*
X34000D02*
D03*
X25000D02*
D03*
X11000Y500D02*
D03*
X20000D02*
D03*
D254*
X4990Y6732D02*
D03*
Y18268D02*
D03*
D255*
X24438Y12000D02*
D03*
X26662D02*
D03*
X24438Y13000D02*
D03*
Y14000D02*
D03*
X26662Y13000D02*
D03*
Y14000D02*
D03*
M02*
