G04*
G04 #@! TF.GenerationSoftware,Altium Limited,Altium Designer,19.1.7 (138)*
G04*
G04 Layer_Color=128*
%FSLAX24Y24*%
%MOIN*%
G70*
G01*
G75*
%ADD90R,0.0402X0.0862*%
%ADD117C,0.0394*%
%ADD252R,0.1654X0.1260*%
%ADD253R,0.0874X0.0402*%
D90*
X15400Y17423D02*
D03*
Y18577D02*
D03*
X16400Y17423D02*
D03*
Y18577D02*
D03*
X7400D02*
D03*
Y17423D02*
D03*
X11400D02*
D03*
Y18577D02*
D03*
X12400Y17423D02*
D03*
Y18577D02*
D03*
X10400Y17423D02*
D03*
Y18577D02*
D03*
X9400Y17423D02*
D03*
Y18577D02*
D03*
X8400D02*
D03*
Y17423D02*
D03*
X14400Y18577D02*
D03*
Y17423D02*
D03*
X13400Y18577D02*
D03*
Y17423D02*
D03*
X17400Y18577D02*
D03*
Y17423D02*
D03*
X18400Y18577D02*
D03*
Y17423D02*
D03*
X10400Y22577D02*
D03*
Y21423D02*
D03*
X9400Y22577D02*
D03*
Y21423D02*
D03*
X15400Y22577D02*
D03*
Y21423D02*
D03*
X14400D02*
D03*
Y22577D02*
D03*
X13400Y21423D02*
D03*
Y22577D02*
D03*
X11400Y21423D02*
D03*
Y22577D02*
D03*
X12400Y21423D02*
D03*
Y22577D02*
D03*
X16400D02*
D03*
Y21423D02*
D03*
X7400D02*
D03*
Y22577D02*
D03*
X8400Y21423D02*
D03*
Y22577D02*
D03*
X34000Y21423D02*
D03*
Y22577D02*
D03*
X30000D02*
D03*
Y21423D02*
D03*
X29000Y22577D02*
D03*
Y21423D02*
D03*
X31000Y22577D02*
D03*
Y21423D02*
D03*
X32000Y22577D02*
D03*
Y21423D02*
D03*
X33000D02*
D03*
Y22577D02*
D03*
X27000Y21423D02*
D03*
Y22577D02*
D03*
X28000Y21423D02*
D03*
Y22577D02*
D03*
X25000Y21423D02*
D03*
Y22577D02*
D03*
X21000D02*
D03*
Y21423D02*
D03*
X20000Y22577D02*
D03*
Y21423D02*
D03*
X22000Y22577D02*
D03*
Y21423D02*
D03*
X23000Y22577D02*
D03*
Y21423D02*
D03*
X24000D02*
D03*
Y22577D02*
D03*
X18000Y21423D02*
D03*
Y22577D02*
D03*
X19000Y21423D02*
D03*
Y22577D02*
D03*
X11000Y3577D02*
D03*
Y2423D02*
D03*
X15000D02*
D03*
Y3577D02*
D03*
X16000Y2423D02*
D03*
Y3577D02*
D03*
X14000Y2423D02*
D03*
Y3577D02*
D03*
X13000Y2423D02*
D03*
Y3577D02*
D03*
X12000D02*
D03*
Y2423D02*
D03*
X18000Y3577D02*
D03*
Y2423D02*
D03*
X17000Y3577D02*
D03*
Y2423D02*
D03*
X21000D02*
D03*
Y3577D02*
D03*
X22000D02*
D03*
Y2423D02*
D03*
X23000Y3577D02*
D03*
Y2423D02*
D03*
X25000Y3577D02*
D03*
Y2423D02*
D03*
X24000Y3577D02*
D03*
Y2423D02*
D03*
X20000D02*
D03*
Y3577D02*
D03*
D117*
X50973Y23600D02*
D03*
X5411Y1120D02*
D03*
D252*
X4990Y6732D02*
D03*
Y18268D02*
D03*
D253*
X24438Y12000D02*
D03*
X26662D02*
D03*
X24438Y13000D02*
D03*
Y14000D02*
D03*
X26662Y13000D02*
D03*
Y14000D02*
D03*
M02*
