G04*
G04 #@! TF.GenerationSoftware,Altium Limited,Altium Designer,19.0.10 (269)*
G04*
G04 Layer_Physical_Order=2*
G04 Layer_Color=36540*
%FSLAX24Y24*%
%MOIN*%
G70*
G01*
G75*
%ADD11C,0.0060*%
%ADD33C,0.0059*%
%ADD38C,0.0240*%
%ADD39C,0.0138*%
G36*
X4692Y1093D02*
X2730D01*
X2698Y1143D01*
X2699Y1144D01*
X2704Y1172D01*
X2706Y1201D01*
X2704Y1230D01*
X2699Y1258D01*
X2690Y1285D01*
X2677Y1311D01*
X2661Y1335D01*
X2642Y1357D01*
X2620Y1376D01*
X2596Y1392D01*
X2570Y1404D01*
X2543Y1414D01*
X2515Y1419D01*
X2486Y1421D01*
X2457Y1419D01*
X2429Y1414D01*
X2402Y1404D01*
X2376Y1392D01*
X2352Y1376D01*
X2330Y1357D01*
X2311Y1335D01*
X2295Y1311D01*
X2282Y1285D01*
X2273Y1258D01*
X2267Y1230D01*
X2265Y1201D01*
X2267Y1172D01*
X2273Y1144D01*
X2273Y1143D01*
X2242Y1093D01*
X1872D01*
X1872Y-482D01*
X4692D01*
Y-3708D01*
X2251D01*
X2244Y-3701D01*
Y-1203D01*
X2243Y-1182D01*
X2238Y-1162D01*
X2230Y-1144D01*
X2219Y-1126D01*
X2206Y-1111D01*
X1245Y-150D01*
X1239Y-132D01*
X1229Y-112D01*
X1217Y-94D01*
X1202Y-77D01*
X1186Y-63D01*
X1167Y-50D01*
X1147Y-40D01*
X1126Y-33D01*
X1105Y-29D01*
X1083Y-28D01*
X1061Y-29D01*
X1039Y-33D01*
X1018Y-40D01*
X998Y-50D01*
X980Y-63D01*
X963Y-77D01*
X948Y-94D01*
X936Y-112D01*
X926Y-132D01*
X919Y-153D01*
X915Y-175D01*
X913Y-197D01*
X915Y-219D01*
X919Y-241D01*
X926Y-262D01*
X936Y-281D01*
X945Y-295D01*
X936Y-309D01*
X926Y-329D01*
X919Y-350D01*
X915Y-372D01*
X913Y-394D01*
X915Y-416D01*
X919Y-438D01*
X926Y-458D01*
X936Y-478D01*
X945Y-492D01*
X936Y-506D01*
X926Y-526D01*
X919Y-547D01*
X915Y-568D01*
X913Y-591D01*
X915Y-613D01*
X919Y-634D01*
X926Y-655D01*
X936Y-675D01*
X945Y-689D01*
X936Y-703D01*
X926Y-723D01*
X919Y-744D01*
X915Y-765D01*
X913Y-787D01*
X915Y-809D01*
X919Y-831D01*
X926Y-852D01*
X936Y-872D01*
X948Y-890D01*
X963Y-907D01*
X980Y-922D01*
X998Y-934D01*
X1018Y-944D01*
X1039Y-951D01*
X1061Y-955D01*
X1083Y-957D01*
X1105Y-955D01*
X1106Y-955D01*
X1630Y-1479D01*
Y-1565D01*
X1623Y-1575D01*
X1580Y-1603D01*
X1574Y-1602D01*
X1545Y-1600D01*
X1516Y-1602D01*
X1488Y-1608D01*
X1461Y-1617D01*
X1435Y-1630D01*
X1411Y-1646D01*
X1389Y-1665D01*
X1370Y-1687D01*
X1354Y-1711D01*
X1342Y-1736D01*
X1332Y-1764D01*
X1327Y-1792D01*
X1325Y-1821D01*
X1327Y-1850D01*
X1332Y-1878D01*
X1342Y-1905D01*
X1354Y-1931D01*
X1370Y-1955D01*
X1389Y-1977D01*
X1411Y-1996D01*
X1435Y-2012D01*
X1461Y-2025D01*
X1488Y-2034D01*
X1516Y-2039D01*
X1545Y-2041D01*
X1574Y-2039D01*
X1580Y-2038D01*
X1623Y-2066D01*
X1630Y-2077D01*
Y-3701D01*
X1623Y-3708D01*
X30D01*
Y-2084D01*
X168Y-1945D01*
X229Y-1955D01*
X248Y-1977D01*
X269Y-1996D01*
X293Y-2012D01*
X319Y-2025D01*
X346Y-2034D01*
X375Y-2039D01*
X404Y-2041D01*
X432Y-2039D01*
X461Y-2034D01*
X488Y-2025D01*
X514Y-2012D01*
X538Y-1996D01*
X559Y-1977D01*
X578Y-1955D01*
X594Y-1931D01*
X607Y-1905D01*
X617Y-1878D01*
X622Y-1850D01*
X624Y-1821D01*
X622Y-1792D01*
X617Y-1764D01*
X607Y-1736D01*
X594Y-1711D01*
X578Y-1687D01*
X559Y-1665D01*
X538Y-1646D01*
X528Y-1586D01*
X879Y-1234D01*
X893Y-1218D01*
X897Y-1211D01*
X907Y-1202D01*
X922Y-1186D01*
X934Y-1167D01*
X944Y-1147D01*
X951Y-1126D01*
X955Y-1105D01*
X957Y-1083D01*
X955Y-1061D01*
X951Y-1039D01*
X944Y-1018D01*
X934Y-998D01*
X922Y-980D01*
X907Y-963D01*
X890Y-948D01*
X872Y-936D01*
X852Y-926D01*
X831Y-919D01*
X809Y-915D01*
X787Y-913D01*
X765Y-915D01*
X744Y-919D01*
X723Y-926D01*
X703Y-936D01*
X689Y-945D01*
X675Y-936D01*
X655Y-926D01*
X634Y-919D01*
X613Y-915D01*
X591Y-913D01*
X568Y-915D01*
X547Y-919D01*
X526Y-926D01*
X506Y-936D01*
X492Y-945D01*
X478Y-936D01*
X458Y-926D01*
X438Y-919D01*
X416Y-915D01*
X394Y-913D01*
X372Y-915D01*
X350Y-919D01*
X329Y-926D01*
X309Y-936D01*
X295Y-945D01*
X281Y-936D01*
X262Y-926D01*
X241Y-919D01*
X219Y-915D01*
X197Y-913D01*
X175Y-915D01*
X153Y-919D01*
X132Y-926D01*
X112Y-936D01*
X98Y-945D01*
X85Y-936D01*
X65Y-926D01*
X44Y-919D01*
X22Y-915D01*
X0Y-913D01*
X-22Y-915D01*
X-44Y-919D01*
X-65Y-926D01*
X-85Y-936D01*
X-98Y-945D01*
X-112Y-936D01*
X-132Y-926D01*
X-153Y-919D01*
X-175Y-915D01*
X-197Y-913D01*
X-219Y-915D01*
X-241Y-919D01*
X-262Y-926D01*
X-281Y-936D01*
X-295Y-945D01*
X-309Y-936D01*
X-329Y-926D01*
X-350Y-919D01*
X-372Y-915D01*
X-394Y-913D01*
X-416Y-915D01*
X-438Y-919D01*
X-458Y-926D01*
X-478Y-936D01*
X-497Y-948D01*
X-513Y-963D01*
X-528Y-980D01*
X-540Y-998D01*
X-550Y-1018D01*
X-557Y-1039D01*
X-562Y-1061D01*
X-563Y-1083D01*
X-562Y-1105D01*
X-557Y-1126D01*
X-550Y-1147D01*
X-540Y-1167D01*
X-528Y-1186D01*
X-524Y-1191D01*
Y-1266D01*
X-902Y-1644D01*
X-915Y-1659D01*
X-926Y-1677D01*
X-933Y-1696D01*
X-938Y-1716D01*
X-940Y-1736D01*
Y-3708D01*
X-3905D01*
Y-992D01*
X-1551D01*
X-1531Y-991D01*
X-1511Y-986D01*
X-1492Y-978D01*
X-1475Y-968D01*
X-1460Y-954D01*
X-1067Y-562D01*
X-1061Y-562D01*
X-1039Y-557D01*
X-1018Y-550D01*
X-998Y-540D01*
X-980Y-528D01*
X-963Y-513D01*
X-948Y-497D01*
X-936Y-478D01*
X-926Y-458D01*
X-919Y-438D01*
X-915Y-416D01*
X-913Y-394D01*
X-915Y-372D01*
X-919Y-350D01*
X-926Y-329D01*
X-936Y-309D01*
X-945Y-295D01*
X-936Y-281D01*
X-926Y-262D01*
X-919Y-241D01*
X-915Y-219D01*
X-913Y-197D01*
X-915Y-175D01*
X-919Y-153D01*
X-926Y-132D01*
X-936Y-112D01*
X-945Y-98D01*
X-936Y-85D01*
X-926Y-65D01*
X-919Y-44D01*
X-915Y-22D01*
X-913Y0D01*
X-915Y22D01*
X-919Y44D01*
X-926Y65D01*
X-936Y85D01*
X-945Y98D01*
X-936Y112D01*
X-926Y132D01*
X-919Y153D01*
X-915Y175D01*
X-913Y197D01*
X-915Y219D01*
X-919Y241D01*
X-926Y262D01*
X-936Y281D01*
X-945Y295D01*
X-936Y309D01*
X-926Y329D01*
X-919Y350D01*
X-915Y372D01*
X-913Y394D01*
X-915Y416D01*
X-919Y438D01*
X-926Y458D01*
X-936Y478D01*
X-948Y497D01*
X-963Y513D01*
X-980Y528D01*
X-998Y540D01*
X-1018Y550D01*
X-1039Y557D01*
X-1061Y562D01*
X-1083Y563D01*
X-1105Y562D01*
X-1126Y557D01*
X-1147Y550D01*
X-1167Y540D01*
X-1186Y528D01*
X-1202Y513D01*
X-1217Y497D01*
X-1229Y478D01*
X-1239Y458D01*
X-1245Y441D01*
X-1946Y-260D01*
X-3905D01*
Y3708D01*
X-634D01*
Y1499D01*
X-632Y1478D01*
X-627Y1459D01*
X-620Y1440D01*
X-609Y1422D01*
X-596Y1407D01*
X-524Y1335D01*
Y1191D01*
X-528Y1186D01*
X-540Y1167D01*
X-550Y1147D01*
X-557Y1126D01*
X-562Y1105D01*
X-563Y1083D01*
X-562Y1061D01*
X-557Y1039D01*
X-550Y1018D01*
X-540Y998D01*
X-528Y980D01*
X-513Y963D01*
X-497Y948D01*
X-478Y936D01*
X-458Y926D01*
X-438Y919D01*
X-416Y915D01*
X-394Y913D01*
X-372Y915D01*
X-350Y919D01*
X-329Y926D01*
X-309Y936D01*
X-295Y945D01*
X-281Y936D01*
X-262Y926D01*
X-241Y919D01*
X-219Y915D01*
X-197Y913D01*
X-175Y915D01*
X-153Y919D01*
X-132Y926D01*
X-112Y936D01*
X-98Y945D01*
X-85Y936D01*
X-65Y926D01*
X-44Y919D01*
X-22Y915D01*
X0Y913D01*
X22Y915D01*
X44Y919D01*
X65Y926D01*
X85Y936D01*
X98Y945D01*
X112Y936D01*
X132Y926D01*
X153Y919D01*
X175Y915D01*
X197Y913D01*
X219Y915D01*
X241Y919D01*
X262Y926D01*
X281Y936D01*
X295Y945D01*
X309Y936D01*
X329Y926D01*
X350Y919D01*
X372Y915D01*
X394Y913D01*
X416Y915D01*
X438Y919D01*
X458Y926D01*
X478Y936D01*
X492Y945D01*
X506Y936D01*
X526Y926D01*
X547Y919D01*
X568Y915D01*
X591Y913D01*
X613Y915D01*
X634Y919D01*
X655Y926D01*
X675Y936D01*
X694Y948D01*
X710Y963D01*
X725Y980D01*
X737Y998D01*
X747Y1018D01*
X754Y1039D01*
X758Y1061D01*
X760Y1083D01*
X758Y1105D01*
X754Y1126D01*
X747Y1147D01*
X737Y1167D01*
X725Y1186D01*
X720Y1191D01*
Y1239D01*
X719Y1260D01*
X714Y1280D01*
X706Y1298D01*
X696Y1316D01*
X682Y1331D01*
X217Y1797D01*
Y3708D01*
X4692D01*
Y1093D01*
D02*
G37*
%LPC*%
G36*
X659Y2366D02*
X631Y2364D01*
X602Y2359D01*
X575Y2349D01*
X549Y2337D01*
X525Y2321D01*
X504Y2302D01*
X485Y2280D01*
X469Y2256D01*
X456Y2230D01*
X446Y2203D01*
X441Y2174D01*
X439Y2146D01*
X441Y2117D01*
X446Y2089D01*
X456Y2061D01*
X469Y2035D01*
X485Y2011D01*
X504Y1990D01*
X525Y1971D01*
X549Y1955D01*
X575Y1942D01*
X602Y1933D01*
X631Y1927D01*
X659Y1925D01*
X688Y1927D01*
X717Y1933D01*
X744Y1942D01*
X770Y1955D01*
X794Y1971D01*
X815Y1990D01*
X834Y2011D01*
X850Y2035D01*
X863Y2061D01*
X872Y2089D01*
X878Y2117D01*
X880Y2146D01*
X878Y2174D01*
X872Y2203D01*
X863Y2230D01*
X850Y2256D01*
X834Y2280D01*
X815Y2302D01*
X794Y2321D01*
X770Y2337D01*
X744Y2349D01*
X717Y2359D01*
X688Y2364D01*
X659Y2366D01*
D02*
G37*
G36*
X-2175Y2032D02*
X-2204Y2030D01*
X-2232Y2024D01*
X-2260Y2015D01*
X-2285Y2002D01*
X-2309Y1986D01*
X-2331Y1967D01*
X-2350Y1945D01*
X-2366Y1921D01*
X-2379Y1895D01*
X-2388Y1868D01*
X-2394Y1840D01*
X-2396Y1811D01*
X-2394Y1782D01*
X-2388Y1754D01*
X-2379Y1727D01*
X-2366Y1701D01*
X-2350Y1677D01*
X-2331Y1655D01*
X-2309Y1636D01*
X-2285Y1620D01*
X-2260Y1607D01*
X-2232Y1598D01*
X-2204Y1592D01*
X-2175Y1591D01*
X-2146Y1592D01*
X-2118Y1598D01*
X-2091Y1607D01*
X-2065Y1620D01*
X-2041Y1636D01*
X-2019Y1655D01*
X-2000Y1677D01*
X-1984Y1701D01*
X-1972Y1727D01*
X-1962Y1754D01*
X-1957Y1782D01*
X-1955Y1811D01*
X-1957Y1840D01*
X-1962Y1868D01*
X-1972Y1895D01*
X-1984Y1921D01*
X-2000Y1945D01*
X-2019Y1967D01*
X-2041Y1986D01*
X-2065Y2002D01*
X-2091Y2015D01*
X-2118Y2024D01*
X-2146Y2030D01*
X-2175Y2032D01*
D02*
G37*
G36*
X-1191Y1839D02*
X-1220Y1838D01*
X-1248Y1832D01*
X-1275Y1823D01*
X-1301Y1810D01*
X-1325Y1794D01*
X-1347Y1775D01*
X-1366Y1753D01*
X-1382Y1729D01*
X-1395Y1703D01*
X-1404Y1676D01*
X-1410Y1648D01*
X-1411Y1619D01*
X-1410Y1590D01*
X-1404Y1562D01*
X-1395Y1535D01*
X-1382Y1509D01*
X-1366Y1485D01*
X-1347Y1463D01*
X-1325Y1444D01*
X-1301Y1428D01*
X-1275Y1415D01*
X-1248Y1406D01*
X-1220Y1400D01*
X-1191Y1398D01*
X-1162Y1400D01*
X-1134Y1406D01*
X-1107Y1415D01*
X-1081Y1428D01*
X-1057Y1444D01*
X-1035Y1463D01*
X-1016Y1485D01*
X-1000Y1509D01*
X-987Y1535D01*
X-978Y1562D01*
X-972Y1590D01*
X-970Y1619D01*
X-972Y1648D01*
X-978Y1676D01*
X-987Y1703D01*
X-1000Y1729D01*
X-1016Y1753D01*
X-1035Y1775D01*
X-1057Y1794D01*
X-1081Y1810D01*
X-1107Y1823D01*
X-1134Y1832D01*
X-1162Y1838D01*
X-1191Y1839D01*
D02*
G37*
G36*
X-2877Y-1463D02*
X-2906Y-1464D01*
X-2934Y-1470D01*
X-2961Y-1479D01*
X-2987Y-1492D01*
X-3011Y-1508D01*
X-3033Y-1527D01*
X-3052Y-1549D01*
X-3068Y-1573D01*
X-3080Y-1599D01*
X-3090Y-1626D01*
X-3095Y-1654D01*
X-3097Y-1683D01*
X-3095Y-1712D01*
X-3090Y-1740D01*
X-3080Y-1767D01*
X-3068Y-1793D01*
X-3052Y-1817D01*
X-3033Y-1839D01*
X-3011Y-1858D01*
X-2987Y-1874D01*
X-2961Y-1887D01*
X-2934Y-1896D01*
X-2906Y-1902D01*
X-2877Y-1904D01*
X-2848Y-1902D01*
X-2820Y-1896D01*
X-2792Y-1887D01*
X-2767Y-1874D01*
X-2743Y-1858D01*
X-2721Y-1839D01*
X-2702Y-1817D01*
X-2686Y-1793D01*
X-2673Y-1767D01*
X-2664Y-1740D01*
X-2658Y-1712D01*
X-2656Y-1683D01*
X-2658Y-1654D01*
X-2664Y-1626D01*
X-2673Y-1599D01*
X-2686Y-1573D01*
X-2702Y-1549D01*
X-2721Y-1527D01*
X-2743Y-1508D01*
X-2767Y-1492D01*
X-2792Y-1479D01*
X-2820Y-1470D01*
X-2848Y-1464D01*
X-2877Y-1463D01*
D02*
G37*
%LPD*%
D11*
X0Y-1261D02*
Y-1083D01*
X-573Y-3710D02*
Y-1834D01*
X0Y-1261D01*
D33*
X1122Y-787D02*
X1760Y-1426D01*
Y-3701D02*
Y-1426D01*
X1878Y-3701D02*
Y-1360D01*
X1109Y-591D02*
X1878Y-1360D01*
X1996Y-3701D02*
Y-1281D01*
X1109Y-394D02*
X1996Y-1281D01*
X2114Y-3701D02*
Y-1203D01*
X1109Y-197D02*
X2114Y-1203D01*
X1083Y-197D02*
X1109D01*
X1083Y-394D02*
X1109D01*
X1083Y-591D02*
X1109D01*
X1083Y-787D02*
X1122D01*
X-394Y1083D02*
Y1389D01*
X-504Y1499D02*
Y3720D01*
Y1499D02*
X-394Y1389D01*
X-386Y1548D02*
X-197Y1359D01*
X-386Y1548D02*
Y3720D01*
X-268Y1597D02*
X0Y1329D01*
X-268Y1597D02*
Y3720D01*
X-150Y1645D02*
X197Y1299D01*
X-150Y1645D02*
Y3720D01*
X-31Y1694D02*
X394Y1269D01*
X-31Y1694D02*
Y3720D01*
X87Y1743D02*
X591Y1239D01*
X87Y1743D02*
Y3720D01*
X-197Y1083D02*
Y1359D01*
X0Y1083D02*
Y1329D01*
X197Y1083D02*
Y1299D01*
X394Y1083D02*
Y1269D01*
X591Y1083D02*
Y1239D01*
X-394Y-1320D02*
Y-1083D01*
X-810Y-3710D02*
Y-1736D01*
X-394Y-1320D01*
X-197Y-1290D02*
Y-1083D01*
X-692Y-3710D02*
Y-1785D01*
X-197Y-1290D01*
X197Y-1231D02*
Y-1083D01*
X-455Y-3710D02*
Y-1883D01*
X197Y-1231D01*
X394Y-1202D02*
Y-1083D01*
X-337Y-3710D02*
Y-1932D01*
X394Y-1202D01*
X591Y-1172D02*
Y-1083D01*
X-218Y-3710D02*
Y-1981D01*
X591Y-1172D01*
X-100Y-3710D02*
Y-2030D01*
X787Y-1142D01*
Y-1083D01*
X-1551Y-862D02*
X-1083Y-394D01*
X-3916Y-862D02*
X-1551D01*
X-1735Y-626D02*
X-1109Y0D01*
X-3916Y-626D02*
X-1735D01*
X-1656Y-744D02*
X-1109Y-197D01*
X-3916Y-744D02*
X-1656D01*
X-3916Y-508D02*
X-1813D01*
X-1109Y197D01*
X-3916Y-390D02*
X-1892D01*
X-1109Y394D01*
X-1083D01*
X-1109Y197D02*
X-1083D01*
X-1109Y0D02*
X-1083D01*
X-1109Y-197D02*
X-1083D01*
X-1092Y-394D02*
X-1083D01*
D38*
X1949Y1841D02*
D03*
X3490Y-3590D02*
D03*
Y-2590D02*
D03*
X2472D02*
D03*
Y-3590D02*
D03*
X2825Y-797D02*
D03*
X3570Y3590D02*
D03*
X757D02*
D03*
Y2953D02*
D03*
X1390Y3020D02*
D03*
X2710Y2210D02*
D03*
X2700Y1550D02*
D03*
X2910Y1050D02*
D03*
X4570Y-3590D02*
D03*
Y-2590D02*
D03*
Y-1590D02*
D03*
X2472D02*
D03*
X3490D02*
D03*
Y-590D02*
D03*
X4570D02*
D03*
X2570Y3590D02*
D03*
X4570D02*
D03*
X1570D02*
D03*
X4570Y2590D02*
D03*
X3570D02*
D03*
X4570Y1590D02*
D03*
X3570D02*
D03*
X295Y2904D02*
D03*
X1496Y-2234D02*
D03*
X1208Y-3590D02*
D03*
X260D02*
D03*
X148Y-2559D02*
D03*
X-1043Y-2864D02*
D03*
X-1516D02*
D03*
X-1020Y-3590D02*
D03*
X-1970D02*
D03*
X-1912Y-2559D02*
D03*
X-2503D02*
D03*
X-2500Y-3590D02*
D03*
X-3790Y-60D02*
D03*
X-2619Y394D02*
D03*
X-2835Y1033D02*
D03*
X-2913Y1467D02*
D03*
X-787Y2559D02*
D03*
X-2559Y2362D02*
D03*
X-719Y3590D02*
D03*
X-1575D02*
D03*
X-2559D02*
D03*
X-3790D02*
D03*
Y2362D02*
D03*
Y984D02*
D03*
Y-2470D02*
D03*
Y-3590D02*
D03*
X-3062Y-157D02*
D03*
X1201Y1496D02*
D03*
X-709Y1457D02*
D03*
X404Y-2244D02*
D03*
X1211Y-2550D02*
D03*
X1417Y-1378D02*
D03*
X-3790Y-1330D02*
D03*
X-2542D02*
D03*
X-709Y709D02*
D03*
X-236D02*
D03*
X236D02*
D03*
X709D02*
D03*
X-709Y236D02*
D03*
X-236D02*
D03*
X236D02*
D03*
X709D02*
D03*
X-709Y-236D02*
D03*
X-236D02*
D03*
X236D02*
D03*
X709D02*
D03*
X-709Y-709D02*
D03*
X-236D02*
D03*
X236D02*
D03*
X709D02*
D03*
X-1610Y1760D02*
D03*
X-1580Y2520D02*
D03*
D39*
X-1083Y394D02*
D03*
Y-394D02*
D03*
Y-197D02*
D03*
Y0D02*
D03*
Y197D02*
D03*
X787Y-1083D02*
D03*
X394D02*
D03*
X591D02*
D03*
X1083Y-197D02*
D03*
X1083Y-394D02*
D03*
Y-591D02*
D03*
Y-787D02*
D03*
X-394Y-1083D02*
D03*
X-197D02*
D03*
X0Y-1083D02*
D03*
X-394Y1083D02*
D03*
X-197D02*
D03*
X0D02*
D03*
X197D02*
D03*
X394D02*
D03*
X591D02*
D03*
X197Y-1083D02*
D03*
M02*
