G04*
G04 #@! TF.GenerationSoftware,Altium Limited,Altium Designer,19.0.10 (269)*
G04*
G04 Layer_Color=8421504*
%FSLAX24Y24*%
%MOIN*%
G70*
G01*
G75*
%ADD14R,0.0236X0.0197*%
%ADD15R,0.0197X0.0236*%
%ADD16R,0.0256X0.0197*%
%ADD17R,0.0300X0.0300*%
%ADD18R,0.0315X0.0295*%
%ADD19R,0.0394X0.0709*%
%ADD20R,0.1909X0.1909*%
%ADD21C,0.0118*%
%ADD22R,0.0295X0.0315*%
%ADD23R,0.0374X0.0335*%
D14*
X3289Y-2550D02*
D03*
X3682D02*
D03*
X3289Y-2200D02*
D03*
X3682D02*
D03*
X2593Y-2550D02*
D03*
X2987D02*
D03*
X2593Y-2200D02*
D03*
X2987D02*
D03*
X2520Y-787D02*
D03*
X2126D02*
D03*
X2362Y1545D02*
D03*
X1969D02*
D03*
X-2708Y-167D02*
D03*
X-2314D02*
D03*
X-2490Y1033D02*
D03*
X-2096D02*
D03*
X1270Y1791D02*
D03*
X876D02*
D03*
X-1127Y1900D02*
D03*
X-733D02*
D03*
D15*
X4039Y323D02*
D03*
Y717D02*
D03*
X1792Y699D02*
D03*
Y305D02*
D03*
X2266Y803D02*
D03*
Y1197D02*
D03*
X2916Y717D02*
D03*
Y323D02*
D03*
X-3515Y610D02*
D03*
Y217D02*
D03*
X266Y2598D02*
D03*
Y2205D02*
D03*
X978Y2597D02*
D03*
Y2203D02*
D03*
X2378Y2203D02*
D03*
Y2597D02*
D03*
X98Y-2215D02*
D03*
Y-1821D02*
D03*
X1191Y-2215D02*
D03*
Y-1821D02*
D03*
D16*
X2539Y302D02*
D03*
X2165Y302D02*
D03*
X-1299Y2904D02*
D03*
X-1673D02*
D03*
D17*
X4550Y300D02*
D03*
D18*
X-1673Y1959D02*
D03*
Y2490D02*
D03*
X-1033Y-1969D02*
D03*
Y-2500D02*
D03*
X-1496Y-1969D02*
D03*
Y-2500D02*
D03*
X-1963Y-1683D02*
D03*
Y-2215D02*
D03*
D19*
X-3062Y404D02*
D03*
X-2078D02*
D03*
D20*
X0Y0D02*
D03*
D21*
X1083Y-1280D02*
D03*
X886D02*
D03*
X689D02*
D03*
X492D02*
D03*
X295D02*
D03*
X98D02*
D03*
X-98D02*
D03*
X-295D02*
D03*
X-492D02*
D03*
X-689D02*
D03*
X-886D02*
D03*
X-1083D02*
D03*
X1280Y-1083D02*
D03*
X787D02*
D03*
X591D02*
D03*
X394D02*
D03*
X197D02*
D03*
X0D02*
D03*
X-197D02*
D03*
X-394D02*
D03*
X-787D02*
D03*
X-1083Y-984D02*
D03*
X1280Y-886D02*
D03*
X1083Y-787D02*
D03*
X-1083D02*
D03*
X1280Y-689D02*
D03*
X-1280D02*
D03*
X1083Y-591D02*
D03*
X1280Y-492D02*
D03*
X-1280D02*
D03*
X1083Y-394D02*
D03*
X-1083D02*
D03*
X1280Y-295D02*
D03*
X-1280D02*
D03*
X1083Y-197D02*
D03*
X-1083D02*
D03*
X1280Y-98D02*
D03*
X-1280D02*
D03*
X-1083Y0D02*
D03*
X1280Y98D02*
D03*
X-1280D02*
D03*
X-1083Y197D02*
D03*
X1280Y295D02*
D03*
X-1280D02*
D03*
X1083Y394D02*
D03*
X-1083D02*
D03*
X-1280Y492D02*
D03*
X1083Y591D02*
D03*
X-1083D02*
D03*
X1280Y689D02*
D03*
X-1083Y787D02*
D03*
X-1280Y886D02*
D03*
X1083Y787D02*
D03*
X1280Y1083D02*
D03*
X591D02*
D03*
X394D02*
D03*
X197D02*
D03*
X0D02*
D03*
X-197D02*
D03*
X-394D02*
D03*
X-591D02*
D03*
X-787D02*
D03*
X-984D02*
D03*
X-1280D02*
D03*
X1083Y1280D02*
D03*
X689D02*
D03*
X492D02*
D03*
X295D02*
D03*
X98D02*
D03*
X-98D02*
D03*
X-295D02*
D03*
X-492D02*
D03*
X886D02*
D03*
D22*
X-2018Y1467D02*
D03*
X-2549D02*
D03*
X-1191Y2309D02*
D03*
X-659D02*
D03*
D23*
X1963Y2173D02*
D03*
Y2626D02*
D03*
X1392D02*
D03*
Y2173D02*
D03*
M02*
