M48
;Layer_Color=9474304
;FILE_FORMAT=2:4
INCH,TZ
;TYPE=PLATED
T2F00S00C0.0120
%
T02
X-1020Y-3590
X-1043Y-2864
X-1516
X148Y-2559
X1211Y-2550
X1208Y-3590
X260
X2472
Y-2590
X3490
Y-3590
X4570
Y-2590
X-1912Y-2559
X-2503
X-2500Y-3590
X-1970
X-3790
Y-2470
Y-1330
X-2542
X-2877Y-1683
X-3062Y-157
X-3790Y-60
Y984
X-2835Y1033
X-2913Y1467
X-2175Y1811
X-2559Y2362
Y3590
X-3790
Y2362
X-2619Y394
X-709Y236
X-236
Y709
X-709
X-709Y1457
X-1191Y1619
X-1610Y1760
X-1580Y2520
X-787Y2559
X-719Y3590
X-1575
X757
Y2953
X295Y2904
X659Y2146
X1201Y1496
X1949Y1841
X2700Y1550
X2486Y1201
X2910Y1050
X2590Y700
X2569Y-39
X2825Y-797
X3490Y-590
X3566Y-79
X3566Y679
X3570Y1590
Y2590
Y3590
X2570
X1570
X1390Y3020
X2710Y2210
X4570Y2590
Y3590
Y1590
X4566Y679
X4566Y-79
X4570Y-590
Y-1590
X3490
X2472
X1545Y-1821
X1496Y-2234
X1417Y-1378
X709Y-709
Y-236
Y236
Y709
X236
Y236
Y-236
X-236
X-709
Y-709
X-236
X236
X404Y-1821
X404Y-2244
M30
