M48
;Layer_Color=9474304
;FILE_FORMAT=2:4
INCH,TZ
;TYPE=PLATED
T2F00S00C0.0120
%
T02
X-1020Y-3590
X-1043Y-2864
X-1516
X148Y-2559
X1211Y-2550
X1208Y-3590
X260
X2472
Y-2590
X3490
Y-3590
X4570
Y-2590
X-1959Y-2559
X-2362
X-2953
X-3790Y-2470
Y-3590
X-2960
X-2420
X-3327Y-1683
X-2992Y-1330
X-3790
Y-60
X-3062Y-157
X-2619Y394
X-2835Y1033
X-2913Y1467
X-2175Y1811
X-2559Y2362
Y3590
X-3790
Y2362
Y984
X-1191Y1619
X-709Y1457
X-709Y709
X-236
X236
X709
Y236
X236
X-236
X-709
Y-236
X-236
X236
X709
Y-709
X236
X-236
X-709
X404Y-1821
X404Y-2244
X1496Y-2234
X1545Y-1821
X1417Y-1378
X2472Y-1590
X3490
Y-590
X3566Y-79
X3566Y679
X3570Y1590
X2700Y1550
X2486Y1201
X2910Y1050
X2590Y700
X2569Y-39
X2825Y-797
X4570Y-590
X4566Y-79
X4566Y679
X4570Y1590
Y2590
X3570
Y3590
X4570
X2570
X1570
X1390Y3020
X757Y2953
X295Y2904
X659Y2146
X1201Y1496
X1949Y1841
X2710Y2210
X757Y3590
X-719
X-1575
X-740Y2710
X4570Y-1590
M30
