G04*
G04 #@! TF.GenerationSoftware,Altium Limited,Altium Designer,19.0.10 (269)*
G04*
G04 Layer_Color=65535*
%FSLAX24Y24*%
%MOIN*%
G70*
G01*
G75*
%ADD10C,0.0059*%
%ADD11C,0.0098*%
%ADD12C,0.0060*%
%ADD13C,0.0079*%
G36*
X-1181Y1378D02*
X-1378Y1181D01*
Y1378D01*
X-1181Y1378D01*
D02*
G37*
D10*
X3406Y-3358D02*
G03*
X3406Y-2885I0J236D01*
G01*
X2906D02*
G03*
X2906Y-3358I0J-236D01*
G01*
Y-2885D02*
X3406D01*
X2906Y-3358D02*
X3406D01*
D11*
X-1699Y1083D02*
G03*
X-1699Y1083I-49J0D01*
G01*
D12*
X3131Y-2412D02*
X3387D01*
X3584D02*
X3840D01*
X3131Y-2688D02*
X3387D01*
X3584D02*
X3840D01*
Y-2412D01*
X3131Y-2688D02*
Y-2412D01*
X3131Y-2062D02*
X3387D01*
X3584D02*
X3840D01*
X3131Y-2338D02*
X3387D01*
X3584D02*
X3840D01*
Y-2062D01*
X3131Y-2338D02*
Y-2062D01*
X2436Y-2412D02*
X2692D01*
X2888D02*
X3144D01*
X2436Y-2688D02*
X2692D01*
X2888D02*
X3144D01*
Y-2412D01*
X2436Y-2688D02*
Y-2412D01*
Y-2062D02*
X2692D01*
X2888D02*
X3144D01*
X2436Y-2338D02*
X2692D01*
X2888D02*
X3144D01*
Y-2062D01*
X2436Y-2338D02*
Y-2062D01*
X2421Y-925D02*
X2677D01*
X1968D02*
X2224D01*
X2421Y-650D02*
X2677D01*
X1968D02*
X2224D01*
X1968Y-925D02*
Y-650D01*
X2677Y-925D02*
Y-650D01*
X2264Y1407D02*
X2520D01*
X1811D02*
X2067D01*
X2264Y1683D02*
X2520D01*
X1811D02*
X2067D01*
X1811Y1407D02*
Y1683D01*
X2520Y1407D02*
Y1683D01*
X3901Y874D02*
X4177D01*
X3901Y166D02*
X4177D01*
X3901D02*
Y422D01*
Y618D02*
Y874D01*
X4177Y166D02*
Y422D01*
Y618D02*
Y874D01*
X1654Y148D02*
X1930D01*
X1654Y856D02*
X1930D01*
Y601D02*
Y856D01*
Y148D02*
Y404D01*
X1654Y601D02*
Y856D01*
Y148D02*
Y404D01*
X2450Y164D02*
X2706D01*
X1998D02*
X2254D01*
X2450Y440D02*
X2706D01*
X1998D02*
X2254Y440D01*
X1998Y164D02*
Y440D01*
X2706Y164D02*
Y440D01*
X2128Y1354D02*
X2404D01*
X2128Y646D02*
X2404D01*
X2128D02*
X2128Y902D01*
X2128Y1098D02*
Y1354D01*
X2404Y646D02*
Y902D01*
Y1098D02*
Y1354D01*
X2778Y166D02*
X3054D01*
X2778Y874D02*
X3054D01*
X3054Y618D02*
X3054Y874D01*
Y166D02*
Y422D01*
X2778Y874D02*
X2778Y618D01*
X2778Y166D02*
X2778Y422D01*
X-1841Y2766D02*
Y3041D01*
X-1132Y2766D02*
Y3041D01*
X-1388Y2766D02*
X-1132D01*
X-1841D02*
X-1585D01*
X-1388Y3041D02*
X-1132D01*
X-1841D02*
X-1585D01*
X-1870Y1762D02*
Y2126D01*
Y2323D02*
Y2687D01*
X-1476Y1762D02*
Y2126D01*
Y2323D02*
Y2687D01*
X-1870Y1762D02*
X-1476D01*
X-1870Y2687D02*
X-1476D01*
X-1230Y-2697D02*
Y-2333D01*
Y-2136D02*
Y-1772D01*
X-837Y-2697D02*
Y-2333D01*
Y-2136D02*
Y-1772D01*
X-1230D02*
X-837D01*
X-1230Y-2697D02*
X-837D01*
X-1693D02*
Y-2333D01*
Y-2136D02*
Y-1772D01*
X-1299Y-2697D02*
Y-2333D01*
Y-2136D02*
Y-1772D01*
X-1693D02*
X-1299D01*
X-1693Y-2697D02*
X-1299D01*
X-3377Y512D02*
Y768D01*
Y59D02*
Y315D01*
X-3652Y512D02*
Y768D01*
Y59D02*
Y315D01*
Y59D02*
X-3377D01*
X-3652Y768D02*
X-3377D01*
X-2865Y-30D02*
X-2609D01*
X-2412D02*
X-2156D01*
X-2865Y-305D02*
X-2609D01*
X-2412D02*
X-2156D01*
Y-30D01*
X-2865Y-305D02*
Y-30D01*
X-2648Y1171D02*
X-2392D01*
X-2195D02*
X-1939D01*
X-2648Y896D02*
X-2392D01*
X-2195D02*
X-1939D01*
Y1171D01*
X-2648Y896D02*
Y1171D01*
X-2746Y1663D02*
X-2382D01*
X-2185D02*
X-1821D01*
X-2746Y1270D02*
X-2382D01*
X-2185D02*
X-1821D01*
Y1663D01*
X-2746Y1270D02*
Y1663D01*
X404Y2500D02*
Y2756D01*
Y2047D02*
Y2303D01*
X128Y2500D02*
Y2756D01*
Y2047D02*
Y2303D01*
Y2047D02*
X404D01*
X128Y2756D02*
X404D01*
X1115Y2498D02*
Y2754D01*
Y2045D02*
Y2301D01*
X840Y2498D02*
Y2754D01*
Y2045D02*
Y2301D01*
Y2045D02*
X1115D01*
X840Y2754D02*
X1115D01*
X2103Y2376D02*
Y2423D01*
X1615Y2053D02*
X1741D01*
X1252Y2376D02*
Y2423D01*
X1615Y2746D02*
X1741D01*
X2240Y2045D02*
Y2301D01*
Y2498D02*
Y2754D01*
X2515Y2045D02*
Y2301D01*
Y2498D02*
Y2754D01*
X2240D02*
X2515D01*
X2240Y2045D02*
X2515D01*
X-2160Y-2411D02*
Y-2047D01*
Y-1850D02*
Y-1486D01*
X-1766Y-2411D02*
Y-2047D01*
Y-1850D02*
Y-1486D01*
X-2160D02*
X-1766D01*
X-2160Y-2411D02*
X-1766D01*
X-39Y-2372D02*
Y-2116D01*
Y-1919D02*
Y-1663D01*
X236Y-2372D02*
Y-2116D01*
Y-1919D02*
Y-1663D01*
X-39D02*
X236D01*
X-39Y-2372D02*
X236D01*
X1053D02*
Y-2116D01*
Y-1919D02*
Y-1663D01*
X1329Y-2372D02*
Y-2116D01*
Y-1919D02*
Y-1663D01*
X1053D02*
X1329D01*
X1053Y-2372D02*
X1329D01*
X1171Y1654D02*
X1427D01*
X718D02*
X974D01*
X1171Y1929D02*
X1427D01*
X718D02*
X974D01*
X718Y1654D02*
Y1929D01*
X1427Y1654D02*
Y1929D01*
X-576Y1762D02*
Y2038D01*
X-1284Y1762D02*
Y2038D01*
X-1028D01*
X-832D02*
X-576D01*
X-1284Y1762D02*
X-1028D01*
X-832D02*
X-576D01*
X-1388Y2112D02*
Y2506D01*
X-463Y2112D02*
Y2506D01*
X-827Y2112D02*
X-463D01*
X-1388D02*
X-1024D01*
X-827Y2506D02*
X-463D01*
X-1388D02*
X-1024D01*
X4130Y-2463D02*
X4085Y-2418D01*
X3995D01*
X3950Y-2463D01*
Y-2643D01*
X3995Y-2688D01*
X4085D01*
X4130Y-2643D01*
X4220Y-2418D02*
X4400D01*
X4310D01*
Y-2688D01*
X4625D02*
Y-2418D01*
X4490Y-2553D01*
X4670D01*
X1780Y-2463D02*
X1735Y-2418D01*
X1645D01*
X1600Y-2463D01*
Y-2643D01*
X1645Y-2688D01*
X1735D01*
X1780Y-2643D01*
X1870Y-2418D02*
X2050D01*
X1960D01*
Y-2688D01*
X2320D02*
X2140D01*
X2320Y-2508D01*
Y-2463D01*
X2275Y-2418D01*
X2185D01*
X2140Y-2463D01*
X2996Y-3712D02*
Y-3532D01*
X3085Y-3442D01*
X3175Y-3532D01*
Y-3712D01*
Y-3577D01*
X2996D01*
X3265Y-3712D02*
X3355D01*
X3310D01*
Y-3442D01*
X3265Y-3487D01*
X1870Y-2113D02*
X1825Y-2068D01*
X1735D01*
X1690Y-2113D01*
Y-2293D01*
X1735Y-2338D01*
X1825D01*
X1870Y-2293D01*
X1960Y-2068D02*
X2140D01*
X2050D01*
Y-2338D01*
X2230D02*
X2320D01*
X2275D01*
Y-2068D01*
X2230Y-2113D01*
X4130D02*
X4085Y-2068D01*
X3995D01*
X3950Y-2113D01*
Y-2293D01*
X3995Y-2338D01*
X4085D01*
X4130Y-2293D01*
X4220Y-2068D02*
X4400D01*
X4310D01*
Y-2338D01*
X4490Y-2113D02*
X4535Y-2068D01*
X4625D01*
X4670Y-2113D01*
Y-2158D01*
X4625Y-2203D01*
X4580D01*
X4625D01*
X4670Y-2248D01*
Y-2293D01*
X4625Y-2338D01*
X4535D01*
X4490Y-2293D01*
X2290Y-1075D02*
X2245Y-1030D01*
X2155D01*
X2110Y-1075D01*
Y-1255D01*
X2155Y-1300D01*
X2245D01*
X2290Y-1255D01*
X2380D02*
X2425Y-1300D01*
X2515D01*
X2560Y-1255D01*
Y-1075D01*
X2515Y-1030D01*
X2425D01*
X2380Y-1075D01*
Y-1120D01*
X2425Y-1165D01*
X2560D01*
X2930Y1635D02*
X2885Y1680D01*
X2795D01*
X2750Y1635D01*
Y1455D01*
X2795Y1410D01*
X2885D01*
X2930Y1455D01*
X3020Y1410D02*
X3110D01*
X3065D01*
Y1680D01*
X3020Y1635D01*
X3245Y1410D02*
X3335D01*
X3290D01*
Y1680D01*
X3245Y1635D01*
X3952Y-519D02*
X3908Y-564D01*
Y-654D01*
X3952Y-699D01*
X4132D01*
X4177Y-654D01*
Y-564D01*
X4132Y-519D01*
X4177Y-249D02*
Y-429D01*
X3997Y-249D01*
X3952D01*
X3908Y-294D01*
Y-384D01*
X3952Y-429D01*
X4177Y21D02*
Y-159D01*
X3997Y21D01*
X3952D01*
X3908Y-24D01*
Y-114D01*
X3952Y-159D01*
X1702Y-250D02*
X1658Y-295D01*
Y-385D01*
X1702Y-430D01*
X1882D01*
X1927Y-385D01*
Y-295D01*
X1882Y-250D01*
X1702Y-160D02*
X1658Y-115D01*
Y-25D01*
X1702Y20D01*
X1747D01*
X1792Y-25D01*
Y-70D01*
Y-25D01*
X1837Y20D01*
X1882D01*
X1927Y-25D01*
Y-115D01*
X1882Y-160D01*
X2167Y20D02*
Y-250D01*
X2347D01*
X2437D02*
X2527D01*
X2482D01*
Y20D01*
X2437Y-25D01*
X2515Y780D02*
X2470Y735D01*
Y645D01*
X2515Y600D01*
X2695D01*
X2740Y645D01*
Y735D01*
X2695Y780D01*
X2740Y870D02*
Y960D01*
Y915D01*
X2470D01*
X2515Y870D01*
Y1095D02*
X2470Y1140D01*
Y1230D01*
X2515Y1275D01*
X2695D01*
X2740Y1230D01*
Y1140D01*
X2695Y1095D01*
X2515D01*
X2822Y-250D02*
X2778Y-295D01*
Y-385D01*
X2822Y-430D01*
X3002D01*
X3047Y-385D01*
Y-295D01*
X3002Y-250D01*
X3047Y-25D02*
X2778D01*
X2912Y-160D01*
Y20D01*
X-1700Y3440D02*
Y3170D01*
X-1520D01*
X-1430Y3395D02*
X-1385Y3440D01*
X-1295D01*
X-1250Y3395D01*
Y3350D01*
X-1295Y3305D01*
X-1340D01*
X-1295D01*
X-1250Y3260D01*
Y3215D01*
X-1295Y3170D01*
X-1385D01*
X-1430Y3215D01*
X-2256Y2000D02*
X-1986D01*
Y2180D01*
Y2450D02*
Y2270D01*
X-2166Y2450D01*
X-2211D01*
X-2256Y2405D01*
Y2315D01*
X-2211Y2270D01*
X-1128Y-3420D02*
X-1172Y-3465D01*
Y-3555D01*
X-1128Y-3600D01*
X-948D01*
X-903Y-3555D01*
Y-3465D01*
X-948Y-3420D01*
X-903Y-3150D02*
Y-3330D01*
X-1083Y-3150D01*
X-1128D01*
X-1172Y-3195D01*
Y-3285D01*
X-1128Y-3330D01*
X-903Y-3060D02*
Y-2970D01*
Y-3015D01*
X-1172D01*
X-1128Y-3060D01*
X-3500Y1555D02*
X-3545Y1600D01*
X-3635D01*
X-3680Y1555D01*
Y1375D01*
X-3635Y1330D01*
X-3545D01*
X-3500Y1375D01*
X-3410Y1330D02*
X-3320D01*
X-3365D01*
Y1600D01*
X-3410Y1555D01*
X-3050Y1330D02*
Y1600D01*
X-3185Y1465D01*
X-3005D01*
X-1800Y170D02*
X-1530Y350D01*
X-1800D02*
X-1530Y170D01*
Y620D02*
Y440D01*
X-1710Y620D01*
X-1755D01*
X-1800Y575D01*
Y485D01*
X-1755Y440D01*
X-1819Y-660D02*
X-1594D01*
X-1549Y-615D01*
Y-525D01*
X-1594Y-480D01*
X-1819D01*
X-1549Y-390D02*
Y-300D01*
Y-345D01*
X-1819D01*
X-1774Y-390D01*
X885Y3050D02*
X840Y3005D01*
Y2915D01*
X885Y2870D01*
X1065D01*
X1110Y2915D01*
Y3005D01*
X1065Y3050D01*
X1110Y3320D02*
Y3140D01*
X930Y3320D01*
X885D01*
X840Y3275D01*
Y3185D01*
X885Y3140D01*
X5Y-2870D02*
X-40Y-2915D01*
Y-3005D01*
X5Y-3050D01*
X185D01*
X230Y-3005D01*
Y-2915D01*
X185Y-2870D01*
X-40Y-2780D02*
Y-2600D01*
X5D01*
X185Y-2780D01*
X230D01*
X1490Y3160D02*
X1670Y2890D01*
Y3160D02*
X1490Y2890D01*
X1760D02*
X1850D01*
X1805D01*
Y3160D01*
X1760Y3115D01*
X2295Y3050D02*
X2250Y3005D01*
Y2915D01*
X2295Y2870D01*
X2475D01*
X2520Y2915D01*
Y3005D01*
X2475Y3050D01*
X2520Y3140D02*
Y3230D01*
Y3185D01*
X2250D01*
X2295Y3140D01*
X1095Y-2870D02*
X1050Y-2915D01*
Y-3005D01*
X1095Y-3050D01*
X1275D01*
X1320Y-3005D01*
Y-2915D01*
X1275Y-2870D01*
X1095Y-2780D02*
X1050Y-2735D01*
Y-2645D01*
X1095Y-2600D01*
X1140D01*
X1185Y-2645D01*
X1230Y-2600D01*
X1275D01*
X1320Y-2645D01*
Y-2735D01*
X1275Y-2780D01*
X1230D01*
X1185Y-2735D01*
X1140Y-2780D01*
X1095D01*
X1185Y-2735D02*
Y-2645D01*
X-2055Y-2920D02*
X-2100Y-2965D01*
Y-3055D01*
X-2055Y-3100D01*
X-1875D01*
X-1830Y-3055D01*
Y-2965D01*
X-1875Y-2920D01*
X-2100Y-2650D02*
X-2055Y-2740D01*
X-1965Y-2830D01*
X-1875D01*
X-1830Y-2785D01*
Y-2695D01*
X-1875Y-2650D01*
X-1920D01*
X-1965Y-2695D01*
Y-2830D01*
X-3150Y1125D02*
X-3195Y1170D01*
X-3285D01*
X-3330Y1125D01*
Y945D01*
X-3285Y900D01*
X-3195D01*
X-3150Y945D01*
X-2880Y1170D02*
X-3060D01*
Y1035D01*
X-2970Y1080D01*
X-2925D01*
X-2880Y1035D01*
Y945D01*
X-2925Y900D01*
X-3015D01*
X-3060Y945D01*
X-3605Y-550D02*
X-3650Y-595D01*
Y-685D01*
X-3605Y-730D01*
X-3425D01*
X-3380Y-685D01*
Y-595D01*
X-3425Y-550D01*
X-3380Y-460D02*
Y-370D01*
Y-415D01*
X-3650D01*
X-3605Y-460D01*
X-3650Y-235D02*
Y-55D01*
X-3605D01*
X-3425Y-235D01*
X-3380D01*
X-2670Y-465D02*
X-2715Y-420D01*
X-2805D01*
X-2850Y-465D01*
Y-645D01*
X-2805Y-690D01*
X-2715D01*
X-2670Y-645D01*
X-2580Y-690D02*
X-2490D01*
X-2535D01*
Y-420D01*
X-2580Y-465D01*
X-2355D02*
X-2310Y-420D01*
X-2220D01*
X-2175Y-465D01*
Y-510D01*
X-2220Y-555D01*
X-2175Y-600D01*
Y-645D01*
X-2220Y-690D01*
X-2310D01*
X-2355Y-645D01*
Y-600D01*
X-2310Y-555D01*
X-2355Y-510D01*
Y-465D01*
X-2310Y-555D02*
X-2220D01*
X-1587Y-3370D02*
X-1632Y-3415D01*
Y-3505D01*
X-1587Y-3550D01*
X-1408D01*
X-1363Y-3505D01*
Y-3415D01*
X-1408Y-3370D01*
X-1363Y-3100D02*
Y-3280D01*
X-1543Y-3100D01*
X-1587D01*
X-1632Y-3145D01*
Y-3235D01*
X-1587Y-3280D01*
Y-3010D02*
X-1632Y-2965D01*
Y-2875D01*
X-1587Y-2830D01*
X-1408D01*
X-1363Y-2875D01*
Y-2965D01*
X-1408Y-3010D01*
X-1587D01*
X103Y1895D02*
X58Y1940D01*
X-32D01*
X-77Y1895D01*
Y1715D01*
X-32Y1670D01*
X58D01*
X103Y1715D01*
X193Y1670D02*
X283D01*
X238D01*
Y1940D01*
X193Y1895D01*
X598Y1670D02*
X418D01*
X598Y1850D01*
Y1895D01*
X553Y1940D01*
X463D01*
X418Y1895D01*
X175Y3210D02*
X130Y3165D01*
Y3075D01*
X175Y3030D01*
X355D01*
X400Y3075D01*
Y3165D01*
X355Y3210D01*
X400Y3300D02*
Y3390D01*
Y3345D01*
X130D01*
X175Y3300D01*
Y3525D02*
X130Y3570D01*
Y3660D01*
X175Y3705D01*
X220D01*
X265Y3660D01*
Y3615D01*
Y3660D01*
X310Y3705D01*
X355D01*
X400Y3660D01*
Y3570D01*
X355Y3525D01*
X-830Y2835D02*
X-875Y2880D01*
X-965D01*
X-1010Y2835D01*
Y2655D01*
X-965Y2610D01*
X-875D01*
X-830Y2655D01*
X-740Y2610D02*
X-650D01*
X-695D01*
Y2880D01*
X-740Y2835D01*
X-335Y2880D02*
X-425Y2835D01*
X-515Y2745D01*
Y2655D01*
X-470Y2610D01*
X-380D01*
X-335Y2655D01*
Y2700D01*
X-380Y2745D01*
X-515D01*
X-840Y3195D02*
X-885Y3240D01*
X-975D01*
X-1020Y3195D01*
Y3015D01*
X-975Y2970D01*
X-885D01*
X-840Y3015D01*
X-750Y2970D02*
X-660D01*
X-705D01*
Y3240D01*
X-750Y3195D01*
X-345Y3240D02*
X-525D01*
Y3105D01*
X-435Y3150D01*
X-390D01*
X-345Y3105D01*
Y3015D01*
X-390Y2970D01*
X-480D01*
X-525Y3015D01*
D13*
X-1791Y2185D02*
Y2264D01*
X-1555Y2185D02*
Y2264D01*
X-2806Y699D02*
X-2334D01*
X-2806Y108D02*
X-2334D01*
X-1417Y-1417D02*
X1417D01*
X-1417Y1417D02*
X1417D01*
Y-1417D02*
Y1417D01*
X-1417Y-1417D02*
Y1417D01*
X-1152Y-2274D02*
Y-2195D01*
X-915Y-2274D02*
Y-2195D01*
X-1614Y-2274D02*
Y-2195D01*
X-1378Y-2274D02*
Y-2195D01*
X-2323Y1585D02*
X-2244D01*
X-2323Y1348D02*
X-2244D01*
X-2081Y-1988D02*
Y-1909D01*
X-1845Y-1988D02*
Y-1909D01*
X-965Y2191D02*
X-886D01*
X-965Y2427D02*
X-886D01*
M02*
