G04*
G04 #@! TF.GenerationSoftware,Altium Limited,Altium Designer,19.0.10 (269)*
G04*
G04 Layer_Physical_Order=1*
G04 Layer_Color=255*
%FSLAX24Y24*%
%MOIN*%
G70*
G01*
G75*
%ADD10C,0.0098*%
%ADD12C,0.0079*%
%ADD13R,0.0236X0.0197*%
%ADD14R,0.0197X0.0236*%
%ADD15R,0.0256X0.0197*%
%ADD16R,0.0300X0.0300*%
%ADD17R,0.0315X0.0295*%
%ADD18R,0.0374X0.0335*%
%ADD19R,0.0295X0.0315*%
%ADD21R,0.1909X0.1909*%
%ADD22R,0.0394X0.0709*%
%ADD32C,0.0108*%
%ADD33C,0.0059*%
%ADD34C,0.0057*%
%ADD35C,0.0200*%
%ADD36C,0.0300*%
%ADD37C,0.0072*%
%ADD38C,0.0240*%
%ADD39C,0.0138*%
G36*
X372Y2817D02*
X316D01*
Y2598D01*
X216D01*
Y2817D01*
X169D01*
Y3708D01*
X372D01*
Y2817D01*
D02*
G37*
G36*
X4692Y550D02*
X4557D01*
X4550Y550D01*
X4237D01*
Y667D01*
X4039D01*
X3841D01*
Y550D01*
X3114D01*
Y667D01*
X2718D01*
Y550D01*
X2566D01*
X2538Y549D01*
X2510Y544D01*
X2483Y536D01*
X2457Y526D01*
X2452Y523D01*
X2407Y547D01*
X2417Y585D01*
X2464D01*
Y753D01*
X2266D01*
Y853D01*
X2464D01*
Y932D01*
X2486Y980D01*
X2515Y982D01*
X2543Y988D01*
X2570Y997D01*
X2596Y1010D01*
X2620Y1026D01*
X2642Y1045D01*
X2661Y1067D01*
X2677Y1091D01*
X2690Y1116D01*
X2699Y1144D01*
X2704Y1172D01*
X2706Y1201D01*
X2704Y1230D01*
X2699Y1258D01*
X2690Y1285D01*
X2677Y1311D01*
X2661Y1335D01*
X2642Y1357D01*
X2620Y1376D01*
X2596Y1392D01*
X2580Y1400D01*
Y1495D01*
X2362D01*
Y1545D01*
X2312D01*
Y1744D01*
X1803D01*
Y1906D01*
X1913D01*
Y2173D01*
X2013D01*
Y1906D01*
X2250D01*
Y1985D01*
X2328D01*
Y2203D01*
X2378D01*
Y2253D01*
X2576D01*
Y2379D01*
Y2815D01*
X2250D01*
Y2893D01*
X1442D01*
Y2626D01*
X1342D01*
Y2893D01*
X1105D01*
Y2815D01*
X1028D01*
Y2597D01*
X978D01*
Y2547D01*
X779D01*
Y2388D01*
X764Y2371D01*
X729Y2354D01*
X717Y2359D01*
X688Y2364D01*
X659Y2366D01*
X646Y2365D01*
X607Y2403D01*
X606Y2443D01*
X607Y2443D01*
X618Y2461D01*
X625Y2479D01*
X630Y2499D01*
X632Y2520D01*
Y3708D01*
X4692D01*
Y550D01*
D02*
G37*
G36*
X1320Y1593D02*
X1368D01*
X1389Y1543D01*
X1255Y1409D01*
X1166D01*
X1153Y1417D01*
X1130Y1427D01*
X1107Y1432D01*
X1083Y1434D01*
X1036Y1472D01*
Y1593D01*
X1220D01*
Y1791D01*
X1320D01*
Y1593D01*
D02*
G37*
G36*
X-555Y2216D02*
X-609D01*
Y1959D01*
Y1701D01*
X-555D01*
Y1483D01*
X-584Y1454D01*
X-597Y1439D01*
X-608Y1421D01*
X-616Y1402D01*
X-620Y1383D01*
X-622Y1363D01*
X-630Y1350D01*
X-639Y1327D01*
X-686Y1318D01*
X-692Y1320D01*
X-693Y1323D01*
X-706Y1343D01*
X-721Y1361D01*
X-971Y1611D01*
X-970Y1619D01*
X-972Y1648D01*
X-973Y1651D01*
X-943Y1701D01*
X-907D01*
Y1701D01*
X-709D01*
Y1959D01*
Y2216D01*
X-907D01*
Y2216D01*
X-943D01*
Y2216D01*
X-1439D01*
Y1701D01*
X-1439D01*
X-1409Y1651D01*
X-1410Y1648D01*
X-1411Y1619D01*
X-1410Y1590D01*
X-1404Y1562D01*
X-1395Y1535D01*
X-1382Y1509D01*
X-1366Y1485D01*
X-1347Y1463D01*
X-1325Y1444D01*
X-1301Y1428D01*
X-1275Y1415D01*
X-1248Y1406D01*
X-1220Y1400D01*
X-1191Y1398D01*
X-1183Y1399D01*
X-1057Y1273D01*
X-1056Y1251D01*
X-1067Y1213D01*
X-1075Y1208D01*
X-1094Y1192D01*
X-1101Y1183D01*
X-1132Y1177D01*
X-1162Y1183D01*
X-1170Y1192D01*
X-1189Y1208D01*
X-1200Y1215D01*
X-1558Y1572D01*
X-1575Y1588D01*
X-1595Y1600D01*
X-1617Y1609D01*
X-1640Y1614D01*
X-1663Y1616D01*
X-1770D01*
Y1724D01*
X-1886D01*
X-1897Y1742D01*
X-1912Y1759D01*
X-1955Y1803D01*
X-1955Y1811D01*
X-1957Y1840D01*
X-1962Y1868D01*
X-1972Y1895D01*
X-1984Y1921D01*
X-2000Y1945D01*
X-2019Y1967D01*
X-2041Y1986D01*
X-2065Y2002D01*
X-2091Y2015D01*
X-2118Y2024D01*
X-2146Y2030D01*
X-2175Y2032D01*
X-2204Y2030D01*
X-2232Y2024D01*
X-2260Y2015D01*
X-2285Y2002D01*
X-2309Y1986D01*
X-2331Y1967D01*
X-2350Y1945D01*
X-2366Y1921D01*
X-2379Y1895D01*
X-2388Y1868D01*
X-2394Y1840D01*
X-2396Y1811D01*
X-2394Y1782D01*
X-2392Y1774D01*
X-2418Y1733D01*
X-2431Y1724D01*
X-2499D01*
Y1467D01*
X-2549D01*
Y1417D01*
X-2797D01*
Y1209D01*
X-2708D01*
Y1083D01*
X-2490D01*
Y983D01*
X-2708D01*
Y881D01*
X-2719Y872D01*
X-2765Y858D01*
Y858D01*
X-2765Y858D01*
X-3359D01*
Y828D01*
X-3465D01*
Y610D01*
X-3515D01*
Y560D01*
X-3713D01*
Y392D01*
Y-2D01*
X-3645D01*
Y-73D01*
X-3711Y-140D01*
X-3905D01*
Y3708D01*
X-555D01*
Y2216D01*
D02*
G37*
G36*
X-2375Y31D02*
X-2658D01*
Y-167D01*
X-2708D01*
Y-217D01*
X-2926D01*
Y-256D01*
X-3394D01*
X-3412Y-206D01*
X-3410Y-203D01*
X-3399Y-186D01*
X-3391Y-167D01*
X-3386Y-147D01*
X-3385Y-127D01*
Y-90D01*
X-3359Y-51D01*
X-2926D01*
Y-117D01*
X-2758D01*
Y31D01*
X-2765D01*
Y458D01*
X-2503Y720D01*
X-2375D01*
Y31D01*
D02*
G37*
G36*
X-2290Y-1259D02*
X-2467Y-1435D01*
X-2760D01*
Y-1439D01*
X-2770Y-1451D01*
X-2810Y-1473D01*
X-2820Y-1470D01*
X-2848Y-1464D01*
X-2877Y-1463D01*
X-2906Y-1464D01*
X-2934Y-1470D01*
X-2961Y-1479D01*
X-2987Y-1492D01*
X-3011Y-1508D01*
X-3033Y-1527D01*
X-3038Y-1533D01*
X-3899D01*
X-3905Y-1528D01*
Y-1213D01*
X-2309D01*
X-2290Y-1259D01*
D02*
G37*
G36*
X1630Y-1479D02*
Y-1565D01*
X1623Y-1575D01*
X1580Y-1603D01*
X1574Y-1602D01*
X1545Y-1600D01*
X1516Y-1602D01*
X1488Y-1608D01*
X1461Y-1617D01*
X1439Y-1628D01*
X1430Y-1625D01*
X1389Y-1603D01*
Y-1603D01*
X1341Y-1600D01*
Y-1388D01*
X1339Y-1364D01*
X1333Y-1342D01*
X1324Y-1320D01*
X1312Y-1300D01*
X1299Y-1284D01*
X1367Y-1216D01*
X1630Y-1479D01*
D02*
G37*
G36*
X2457Y74D02*
X2483Y64D01*
X2510Y56D01*
X2538Y51D01*
X2566Y50D01*
X4550D01*
X4557Y50D01*
X4692D01*
Y-3708D01*
X3373D01*
X3365Y-3700D01*
Y-616D01*
X3365Y-616D01*
X3363Y-592D01*
X3358Y-569D01*
X3349Y-548D01*
X3337Y-528D01*
X3321Y-510D01*
X3321Y-510D01*
X3042Y-231D01*
X3025Y-216D01*
X3004Y-203D01*
X2983Y-194D01*
X2960Y-189D01*
X2937Y-187D01*
X2086D01*
X2079Y-178D01*
X2106Y-128D01*
X2392D01*
Y56D01*
X2414Y73D01*
X2442Y83D01*
X2457Y74D01*
D02*
G37*
G36*
X2910Y-742D02*
Y-3700D01*
X2903Y-3708D01*
X2361D01*
X2354Y-3701D01*
Y-1233D01*
X2353Y-1213D01*
X2348Y-1193D01*
X2340Y-1174D01*
X2330Y-1157D01*
X2316Y-1141D01*
X2207Y-1032D01*
X2227Y-986D01*
X2470D01*
Y-787D01*
X2520D01*
Y-737D01*
X2738D01*
Y-642D01*
X2810D01*
X2910Y-742D01*
D02*
G37*
G36*
X1461Y-2025D02*
X1488Y-2034D01*
X1516Y-2039D01*
X1545Y-2041D01*
X1574Y-2039D01*
X1580Y-2038D01*
X1623Y-2066D01*
X1630Y-2077D01*
Y-3701D01*
X1623Y-3708D01*
X1096D01*
X1090Y-3701D01*
Y-2433D01*
X1141D01*
Y-2215D01*
X1191D01*
Y-2165D01*
X1389D01*
Y-2041D01*
X1395Y-2035D01*
X1422Y-2019D01*
X1439Y-2014D01*
X1461Y-2025D01*
D02*
G37*
G36*
X375Y-2039D02*
X404Y-2041D01*
X430Y-2040D01*
X433Y-2040D01*
X480Y-2076D01*
Y-3701D01*
X473Y-3708D01*
X38D01*
X32Y-3701D01*
Y-2433D01*
X48D01*
Y-2215D01*
X98D01*
Y-2165D01*
X297D01*
Y-2069D01*
X299Y-2065D01*
X343Y-2034D01*
X346Y-2034D01*
X375Y-2039D01*
D02*
G37*
G36*
X-1921Y-2462D02*
X-1754D01*
Y-2748D01*
X-1546D01*
Y-2500D01*
X-1446D01*
Y-2748D01*
X-1083D01*
Y-2500D01*
X-983D01*
Y-2748D01*
X-888D01*
Y-3691D01*
X-904Y-3708D01*
X-2080D01*
X-2087Y-3701D01*
Y-2462D01*
X-2021D01*
Y-2215D01*
X-1921D01*
Y-2462D01*
D02*
G37*
G36*
X-3033Y-1839D02*
X-3011Y-1858D01*
X-2987Y-1874D01*
X-2961Y-1887D01*
X-2934Y-1896D01*
X-2906Y-1902D01*
X-2877Y-1904D01*
X-2848Y-1902D01*
X-2820Y-1896D01*
X-2810Y-1893D01*
X-2797Y-1900D01*
X-2760Y-1931D01*
Y-1967D01*
X-2760D01*
Y-2165D01*
X-2503D01*
Y-2215D01*
X-2453D01*
Y-2462D01*
X-2387D01*
Y-3701D01*
X-2394Y-3708D01*
X-3905D01*
Y-1838D01*
X-3899Y-1833D01*
X-3038D01*
X-3033Y-1839D01*
D02*
G37*
%LPC*%
G36*
X928Y2815D02*
X779D01*
Y2647D01*
X928D01*
Y2815D01*
D02*
G37*
G36*
X2576Y2153D02*
X2428D01*
Y1985D01*
X2576D01*
Y2153D01*
D02*
G37*
G36*
X2580Y1744D02*
X2412D01*
Y1595D01*
X2580D01*
Y1744D01*
D02*
G37*
G36*
X4237Y935D02*
X4089D01*
Y767D01*
X4237D01*
Y935D01*
D02*
G37*
G36*
X3114Y935D02*
X2966D01*
Y767D01*
X3114D01*
Y935D01*
D02*
G37*
G36*
X2866D02*
X2718D01*
Y767D01*
X2866D01*
Y935D01*
D02*
G37*
G36*
X3989Y935D02*
X3841D01*
Y767D01*
X3989D01*
Y935D01*
D02*
G37*
G36*
X-2599Y1724D02*
X-2797D01*
Y1517D01*
X-2599D01*
Y1724D01*
D02*
G37*
G36*
X-3565Y828D02*
X-3713D01*
Y660D01*
X-3565D01*
Y828D01*
D02*
G37*
G36*
X2738Y-837D02*
X2570D01*
Y-986D01*
X2738D01*
Y-837D01*
D02*
G37*
G36*
X1389Y-2265D02*
X1241D01*
Y-2433D01*
X1389D01*
Y-2265D01*
D02*
G37*
G36*
X297D02*
X148D01*
Y-2433D01*
X297D01*
Y-2265D01*
D02*
G37*
G36*
X-2553D02*
X-2760D01*
Y-2462D01*
X-2553D01*
Y-2265D01*
D02*
G37*
%LPD*%
D10*
X1310Y-98D02*
X1999Y-787D01*
X2126D01*
X1333Y98D02*
X1923Y-492D01*
X2872D01*
X1988Y-337D02*
X2937D01*
X1356Y295D02*
X1988Y-337D01*
X2872Y-492D02*
X3060Y-680D01*
X2937Y-337D02*
X3216Y-616D01*
X3060Y-3700D02*
Y-680D01*
X3216Y-3700D02*
Y-616D01*
X-591Y591D02*
X0Y0D01*
X-591Y591D02*
Y1083D01*
X-2877Y-1683D02*
X-2503D01*
X659Y2008D02*
Y2146D01*
Y2008D02*
X876Y1791D01*
X-2175Y1811D02*
X-2018Y1654D01*
Y1467D02*
Y1654D01*
X-2096Y1033D02*
X-1614D01*
X-1467Y886D01*
X-1280D01*
X-2018Y1467D02*
X-1663D01*
X-1280Y1083D01*
X-1191Y1619D02*
X-827Y1255D01*
X-1191Y1619D02*
Y1959D01*
X-827Y1152D02*
X-787Y1113D01*
Y1083D02*
Y1113D01*
X-827Y1152D02*
Y1255D01*
X-653Y1213D02*
Y1434D01*
Y1213D02*
X-591Y1151D01*
Y1083D02*
Y1151D01*
X266Y1830D02*
X492Y1604D01*
X266Y1830D02*
Y2205D01*
X98Y-1821D02*
X404D01*
X591Y591D02*
X1083D01*
X0Y0D02*
X236Y236D01*
X591Y591D01*
X-1917Y-1220D02*
X-1386Y-689D01*
X-1280D01*
X-2237Y-3701D02*
Y-1949D01*
X-1971Y-1683D01*
X-1666Y-1378D01*
X-1113Y-787D02*
X-1083D01*
X-1175Y-850D02*
X-1113Y-787D01*
X-1327Y-850D02*
X-1175D01*
X98Y-1821D02*
Y-1280D01*
X1083D02*
X1191Y-1388D01*
Y-1821D02*
Y-1388D01*
Y-1821D02*
X1211Y-1841D01*
X1280Y98D02*
X1333D01*
X1280Y295D02*
X1356D01*
X1280Y-98D02*
X1310D01*
X492Y1280D02*
Y1604D01*
X886Y1280D02*
Y1781D01*
X876Y1791D02*
X886Y1781D01*
X1211Y-1841D02*
X1545D01*
X-1083Y-1919D02*
X-1033Y-1969D01*
X-1083Y-1919D02*
Y-1280D01*
X-1496Y-1969D02*
Y-1484D01*
X-1243Y-1231D01*
X-1033Y-1969D02*
X-738Y-2264D01*
Y-3691D02*
Y-2264D01*
X-1666Y-1378D02*
Y-1189D01*
X-1327Y-850D01*
X-2503Y-1683D02*
X-2040Y-1220D01*
X-1917D01*
X-3899Y-1683D02*
X-2877D01*
D12*
X-886Y-1535D02*
Y-1280D01*
X-689Y-1535D02*
Y-1280D01*
Y-1535D02*
X-457Y-1768D01*
Y-3701D02*
Y-1768D01*
X-886Y-1535D02*
X-593Y-1829D01*
Y-3701D02*
Y-1829D01*
D13*
X2520Y-787D02*
D03*
X2126D02*
D03*
X2362Y1545D02*
D03*
X1969D02*
D03*
X876Y1791D02*
D03*
X1270D02*
D03*
X-2096Y1033D02*
D03*
X-2490D02*
D03*
X-2314Y-167D02*
D03*
X-2708D02*
D03*
D14*
X4039Y323D02*
D03*
Y717D02*
D03*
X1792Y699D02*
D03*
Y305D02*
D03*
X2266Y803D02*
D03*
Y1197D02*
D03*
X2916Y717D02*
D03*
Y323D02*
D03*
X1191Y-1821D02*
D03*
Y-2215D02*
D03*
X98Y-1821D02*
D03*
Y-2215D02*
D03*
X2378Y2597D02*
D03*
Y2203D02*
D03*
X978Y2203D02*
D03*
Y2597D02*
D03*
X266Y2205D02*
D03*
Y2598D02*
D03*
X-3515Y217D02*
D03*
Y610D02*
D03*
D15*
X2539Y302D02*
D03*
X2165Y302D02*
D03*
D16*
X4550Y300D02*
D03*
D17*
X-1971Y-2215D02*
D03*
Y-1683D02*
D03*
X-2503Y-2215D02*
D03*
Y-1683D02*
D03*
X-1496Y-2500D02*
D03*
Y-1969D02*
D03*
X-1033Y-2500D02*
D03*
Y-1969D02*
D03*
D18*
X1392Y2173D02*
D03*
Y2626D02*
D03*
X1963D02*
D03*
Y2173D02*
D03*
D19*
X-2549Y1467D02*
D03*
X-2018D02*
D03*
X-1191Y1959D02*
D03*
X-659D02*
D03*
D21*
X0Y0D02*
D03*
D22*
X-2078Y404D02*
D03*
X-3062D02*
D03*
D32*
X886Y1280D02*
D03*
X-492D02*
D03*
X-295D02*
D03*
X-98D02*
D03*
X98D02*
D03*
X295D02*
D03*
X492D02*
D03*
X689D02*
D03*
X1083D02*
D03*
X-1280Y1083D02*
D03*
X-984D02*
D03*
X-787D02*
D03*
X-591D02*
D03*
X-394D02*
D03*
X-197D02*
D03*
X0D02*
D03*
X197D02*
D03*
X394D02*
D03*
X591D02*
D03*
X1280D02*
D03*
X1083Y787D02*
D03*
X-1280Y886D02*
D03*
X-1083Y787D02*
D03*
X1280Y689D02*
D03*
X-1083Y591D02*
D03*
X1083D02*
D03*
X-1280Y492D02*
D03*
X-1083Y394D02*
D03*
X1083D02*
D03*
X-1280Y295D02*
D03*
X1280D02*
D03*
X-1083Y197D02*
D03*
X-1280Y98D02*
D03*
X1280D02*
D03*
X-1083Y0D02*
D03*
X-1280Y-98D02*
D03*
X1280D02*
D03*
X-1083Y-197D02*
D03*
X1083D02*
D03*
X-1280Y-295D02*
D03*
X1280D02*
D03*
X-1083Y-394D02*
D03*
X1083D02*
D03*
X-1280Y-492D02*
D03*
X1280D02*
D03*
X1083Y-591D02*
D03*
X-1280Y-689D02*
D03*
X1280D02*
D03*
X-1083Y-787D02*
D03*
X1083D02*
D03*
X1280Y-886D02*
D03*
X-1083Y-984D02*
D03*
X-787Y-1083D02*
D03*
X-394D02*
D03*
X-197D02*
D03*
X0D02*
D03*
X197D02*
D03*
X394D02*
D03*
X591D02*
D03*
X787D02*
D03*
X1280D02*
D03*
X-1083Y-1280D02*
D03*
X-886D02*
D03*
X-689D02*
D03*
X-492D02*
D03*
X-295D02*
D03*
X-98D02*
D03*
X98D02*
D03*
X295D02*
D03*
X492D02*
D03*
X689D02*
D03*
X886D02*
D03*
X1083D02*
D03*
D33*
X1287Y-295D02*
X2225Y-1233D01*
X1320Y-492D02*
X2108Y-1281D01*
X1352Y-689D02*
X1992Y-1329D01*
X1385Y-886D02*
X1876Y-1377D01*
X1417Y-1083D02*
X1760Y-1425D01*
X1319Y915D02*
X1949Y1545D01*
X1280Y712D02*
X1769Y1201D01*
X2486D01*
X1760Y-3701D02*
Y-1425D01*
X1876Y-3701D02*
Y-1377D01*
X1992Y-3701D02*
Y-1329D01*
X2225Y-3701D02*
Y-1233D01*
X2108Y-3701D02*
Y-1281D01*
X-2276Y-502D02*
X-1282Y492D01*
X-3917Y-502D02*
X-2276D01*
X-3917Y-386D02*
X-2444D01*
X-3515Y-127D02*
Y217D01*
X-3917Y-270D02*
X-3658D01*
X-3515Y-127D01*
X295Y1280D02*
Y1283D01*
X39Y1539D02*
X295Y1283D01*
X98Y1280D02*
Y1316D01*
X-77Y1491D02*
X98Y1316D01*
X-77Y1491D02*
Y3720D01*
X-193Y1443D02*
Y3720D01*
Y1443D02*
X-98Y1348D01*
X-309Y1293D02*
Y3720D01*
Y1293D02*
X-295Y1280D01*
X39Y1539D02*
Y3720D01*
X-425Y1429D02*
Y3720D01*
X-492Y1362D02*
X-425Y1429D01*
X453Y1835D02*
Y2470D01*
X502Y2520D02*
Y3722D01*
X453Y2470D02*
X502Y2520D01*
X-3917Y-618D02*
X-2195D01*
X-3917Y-734D02*
X-2142D01*
X-2444Y-386D02*
X-2314Y-256D01*
Y-167D01*
X-3917Y-1083D02*
X-1972D01*
X-1381Y-492D02*
X-1280D01*
X-1972Y-1083D02*
X-1381Y-492D01*
X-3917Y-967D02*
X-2020D01*
X-1348Y-295D01*
X-1280D01*
X-3917Y-850D02*
X-2071D01*
X-1319Y-98D02*
X-1280D01*
X-2071Y-850D02*
X-1319Y-98D01*
X-1309Y98D02*
X-1280D01*
X-2142Y-734D02*
X-1309Y98D01*
X-2195Y-618D02*
X-1282Y295D01*
X-1280D01*
X-1282Y492D02*
X-1280D01*
X453Y1835D02*
X689Y1599D01*
X1309Y1280D02*
X1545Y1516D01*
Y2020D01*
X1673Y1476D02*
Y2402D01*
X1392Y2173D02*
X1545Y2020D01*
X1363Y2203D02*
X1392Y2173D01*
X689Y1280D02*
Y1599D01*
X-98Y1280D02*
Y1348D01*
X-492Y1280D02*
Y1362D01*
X978Y2203D02*
X1363D01*
X1868Y2597D02*
X2378D01*
X1673Y2402D02*
X1868Y2597D01*
X1280Y689D02*
Y712D01*
X1213Y915D02*
X1319D01*
X1083Y787D02*
X1085D01*
X1213Y915D01*
X1280Y1083D02*
X1673Y1476D01*
X1083Y1280D02*
X1309D01*
X-98Y-3701D02*
Y-1280D01*
X-492Y-1535D02*
X-331Y-1697D01*
Y-3701D02*
Y-1697D01*
X-492Y-1535D02*
Y-1280D01*
X-295Y-1568D02*
X-215Y-1649D01*
Y-3701D02*
Y-1649D01*
X-295Y-1568D02*
Y-1280D01*
X295Y-1420D02*
Y-1280D01*
Y-1420D02*
X610Y-1735D01*
Y-3701D02*
Y-1735D01*
X492Y-1453D02*
X727Y-1688D01*
Y-3701D02*
Y-1688D01*
X492Y-1453D02*
Y-1280D01*
X689Y-1486D02*
X843Y-1640D01*
X689Y-1486D02*
Y-1280D01*
X843Y-3701D02*
Y-1640D01*
X886Y-1518D02*
X960Y-1592D01*
Y-3701D02*
Y-1592D01*
X886Y-1518D02*
Y-1280D01*
X1280Y-1083D02*
X1417D01*
X1280Y-492D02*
X1320D01*
X1280Y-886D02*
X1385D01*
X1280Y-689D02*
X1352D01*
X1280Y-295D02*
X1287D01*
D34*
X1642Y549D02*
X1792Y699D01*
X1124Y549D02*
X1642D01*
X1124Y435D02*
X1662D01*
X1793Y303D01*
X1795Y301D01*
X-3062Y404D02*
X-3002D01*
X-2556Y849D01*
X-1849Y632D02*
X-1124D01*
X-2556Y849D02*
X-1621D01*
X-3515Y217D02*
X-3249D01*
X-3062Y404D01*
X-2078Y69D02*
Y404D01*
X-2314Y-167D02*
X-2078Y69D01*
Y404D02*
X-1849Y632D01*
X-1514Y746D02*
X-1124D01*
X-1519Y751D02*
X-1514Y746D01*
X-1522Y751D02*
X-1519D01*
X-1621Y849D02*
X-1522Y751D01*
X-1124Y746D02*
X-1083Y787D01*
X-1124Y632D02*
X-1083Y591D01*
X1083D02*
X1124Y549D01*
X1083Y394D02*
X1124Y435D01*
D35*
X1793Y303D02*
X2145D01*
D36*
X2566Y300D02*
X4550D01*
D37*
X-1243Y-1231D02*
X-1144Y-1132D01*
X-837D01*
X-787Y-1083D01*
D38*
X1949Y1841D02*
D03*
X3490Y-3590D02*
D03*
Y-2590D02*
D03*
X2472D02*
D03*
Y-3590D02*
D03*
X2825Y-797D02*
D03*
X3570Y3590D02*
D03*
X757D02*
D03*
Y2953D02*
D03*
X1390Y3020D02*
D03*
X2710Y2210D02*
D03*
X2700Y1550D02*
D03*
X2486Y1201D02*
D03*
X2590Y700D02*
D03*
X2569Y-39D02*
D03*
X4566Y-79D02*
D03*
X4566Y679D02*
D03*
X2910Y1050D02*
D03*
X4570Y-3590D02*
D03*
Y-2590D02*
D03*
Y-1590D02*
D03*
X2472D02*
D03*
X3490D02*
D03*
Y-590D02*
D03*
X4570D02*
D03*
X2570Y3590D02*
D03*
X4570D02*
D03*
X1570D02*
D03*
X4570Y2590D02*
D03*
X3570D02*
D03*
X4570Y1590D02*
D03*
X3570D02*
D03*
X3566Y679D02*
D03*
X3566Y-79D02*
D03*
X295Y2904D02*
D03*
X1496Y-2234D02*
D03*
X1208Y-3590D02*
D03*
X260D02*
D03*
X148Y-2559D02*
D03*
X-1043Y-2864D02*
D03*
X-1516D02*
D03*
X-1020Y-3590D02*
D03*
X-1970D02*
D03*
X-1912Y-2559D02*
D03*
X-2503D02*
D03*
X-2500Y-3590D02*
D03*
X-3790Y-60D02*
D03*
X-2619Y394D02*
D03*
X-2835Y1033D02*
D03*
X-2913Y1467D02*
D03*
X-787Y2559D02*
D03*
X-2559Y2362D02*
D03*
X-719Y3590D02*
D03*
X-1575D02*
D03*
X-2559D02*
D03*
X-3790D02*
D03*
Y2362D02*
D03*
Y984D02*
D03*
Y-2470D02*
D03*
Y-3590D02*
D03*
X-2877Y-1683D02*
D03*
X-3062Y-157D02*
D03*
X659Y2146D02*
D03*
X1201Y1496D02*
D03*
X-2175Y1811D02*
D03*
X-709Y1457D02*
D03*
X404Y-1821D02*
D03*
X1545Y-1821D02*
D03*
X404Y-2244D02*
D03*
X1211Y-2550D02*
D03*
X1417Y-1378D02*
D03*
X-3790Y-1330D02*
D03*
X-2542D02*
D03*
X-709Y709D02*
D03*
X-236D02*
D03*
X236D02*
D03*
X709D02*
D03*
X-709Y236D02*
D03*
X-236D02*
D03*
X236D02*
D03*
X709D02*
D03*
X-709Y-236D02*
D03*
X-236D02*
D03*
X236D02*
D03*
X709D02*
D03*
X-709Y-709D02*
D03*
X-236D02*
D03*
X236D02*
D03*
X709D02*
D03*
X-1610Y1760D02*
D03*
X-1580Y2520D02*
D03*
X-1191Y1619D02*
D03*
D39*
X-1083Y394D02*
D03*
Y-394D02*
D03*
Y-197D02*
D03*
Y0D02*
D03*
Y197D02*
D03*
X787Y-1083D02*
D03*
X394D02*
D03*
X591D02*
D03*
X1083Y-197D02*
D03*
X1083Y-394D02*
D03*
Y-591D02*
D03*
Y-787D02*
D03*
X-394Y-1083D02*
D03*
X-197D02*
D03*
X0Y-1083D02*
D03*
X-394Y1083D02*
D03*
X-197D02*
D03*
X0D02*
D03*
X197D02*
D03*
X394D02*
D03*
X591D02*
D03*
X197Y-1083D02*
D03*
M02*
