G04*
G04 #@! TF.GenerationSoftware,Altium Limited,Altium Designer,19.0.10 (269)*
G04*
G04 Layer_Physical_Order=4*
G04 Layer_Color=16711680*
%FSLAX24Y24*%
%MOIN*%
G70*
G01*
G75*
%ADD11C,0.0098*%
%ADD39C,0.0394*%
%ADD40C,0.0240*%
G36*
X4690Y-3706D02*
X-3903D01*
Y3706D01*
X4690D01*
Y-3706D01*
D02*
G37*
%LPC*%
G36*
X659Y2370D02*
X574Y2353D01*
X501Y2304D01*
X497Y2298D01*
X-1841D01*
X-1899Y2286D01*
X-1948Y2253D01*
X-1948Y2253D01*
X-2168Y2034D01*
X-2175Y2035D01*
X-2261Y2018D01*
X-2334Y1970D01*
X-2382Y1897D01*
X-2400Y1811D01*
X-2382Y1725D01*
X-2334Y1652D01*
X-2327Y1648D01*
Y238D01*
X-2984Y-419D01*
X-3017Y-469D01*
X-3029Y-527D01*
Y-1683D01*
X-3017Y-1741D01*
X-2984Y-1791D01*
X-2847Y-1928D01*
X-2847Y-1928D01*
X-2797Y-1961D01*
X-2739Y-1973D01*
X-2739Y-1973D01*
X241D01*
X245Y-1979D01*
X318Y-2028D01*
X404Y-2045D01*
X489Y-2028D01*
X562Y-1979D01*
X566Y-1973D01*
X1382D01*
X1387Y-1979D01*
X1459Y-2028D01*
X1545Y-2045D01*
X1631Y-2028D01*
X1704Y-1979D01*
X1753Y-1907D01*
X1770Y-1821D01*
X1753Y-1735D01*
X1704Y-1662D01*
X1631Y-1614D01*
X1545Y-1597D01*
X1459Y-1614D01*
X1387Y-1662D01*
X1382Y-1669D01*
X566D01*
X562Y-1662D01*
X489Y-1614D01*
X404Y-1597D01*
X318Y-1614D01*
X245Y-1662D01*
X241Y-1669D01*
X-2115D01*
X-2130Y-1597D01*
X-2178Y-1524D01*
X-2251Y-1476D01*
X-2337Y-1459D01*
X-2423Y-1476D01*
X-2495Y-1524D01*
X-2544Y-1597D01*
X-2558Y-1669D01*
X-2676D01*
X-2725Y-1620D01*
Y-590D01*
X-2068Y67D01*
X-2068Y67D01*
X-2035Y117D01*
X-2023Y175D01*
Y1648D01*
X-2017Y1652D01*
X-1968Y1725D01*
X-1951Y1811D01*
X-1952Y1819D01*
X-1778Y1994D01*
X-1097D01*
X-1078Y1947D01*
X-1183Y1842D01*
X-1191Y1843D01*
X-1277Y1826D01*
X-1350Y1778D01*
X-1398Y1705D01*
X-1415Y1619D01*
X-1398Y1533D01*
X-1350Y1460D01*
X-1277Y1412D01*
X-1191Y1395D01*
X-1105Y1412D01*
X-1032Y1460D01*
X-984Y1533D01*
X-967Y1619D01*
X-968Y1627D01*
X-847Y1748D01*
X1117D01*
X1772Y1093D01*
X1772Y1093D01*
X1821Y1060D01*
X1879Y1049D01*
X1879Y1049D01*
X2323D01*
X2327Y1042D01*
X2400Y994D01*
X2486Y976D01*
X2572Y994D01*
X2645Y1042D01*
X2693Y1115D01*
X2710Y1201D01*
X2693Y1287D01*
X2645Y1359D01*
X2572Y1408D01*
X2486Y1425D01*
X2400Y1408D01*
X2327Y1359D01*
X2323Y1353D01*
X1942D01*
X1288Y2008D01*
X1238Y2041D01*
X1180Y2052D01*
X916D01*
X875Y2102D01*
X884Y2146D01*
X867Y2232D01*
X818Y2304D01*
X745Y2353D01*
X659Y2370D01*
D02*
G37*
G36*
X3406Y-2822D02*
X3328Y-2832D01*
X3256Y-2862D01*
X3194Y-2910D01*
X3181Y-2927D01*
X3131D01*
X3117Y-2910D01*
X3055Y-2862D01*
X2983Y-2832D01*
X2906Y-2822D01*
X2828Y-2832D01*
X2756Y-2862D01*
X2694Y-2910D01*
X2646Y-2972D01*
X2616Y-3044D01*
X2606Y-3122D01*
X2616Y-3199D01*
X2646Y-3271D01*
X2694Y-3333D01*
X2756Y-3381D01*
X2828Y-3411D01*
X2906Y-3421D01*
X2983Y-3411D01*
X3055Y-3381D01*
X3117Y-3333D01*
X3131Y-3316D01*
X3181D01*
X3194Y-3333D01*
X3256Y-3381D01*
X3328Y-3411D01*
X3406Y-3421D01*
X3483Y-3411D01*
X3555Y-3381D01*
X3617Y-3333D01*
X3665Y-3271D01*
X3695Y-3199D01*
X3705Y-3122D01*
X3695Y-3044D01*
X3665Y-2972D01*
X3617Y-2910D01*
X3555Y-2862D01*
X3483Y-2832D01*
X3406Y-2822D01*
D02*
G37*
%LPD*%
D11*
X-910Y1900D02*
X1180D01*
X1879Y1201D01*
X2486D01*
X404Y-1821D02*
X404Y-1821D01*
X-2739Y-1821D02*
X404D01*
X-2877Y-1683D02*
X-2739Y-1821D01*
X-2175Y175D02*
Y1811D01*
X-2877Y-527D02*
X-2175Y175D01*
X-2877Y-1683D02*
Y-527D01*
X404Y-1821D02*
X1545D01*
X-1841Y2146D02*
X659D01*
X-2175Y1811D02*
X-1841Y2146D01*
X-1191Y1619D02*
X-910Y1900D01*
D39*
X2906Y-3122D02*
D03*
X3406D02*
D03*
D40*
X2593Y-2850D02*
D03*
Y-1900D02*
D03*
X3682D02*
D03*
X1949Y1841D02*
D03*
X3490Y-3590D02*
D03*
X2472D02*
D03*
X2825Y-797D02*
D03*
X3570Y3590D02*
D03*
X757D02*
D03*
Y2953D02*
D03*
X1390Y3020D02*
D03*
X2710Y2210D02*
D03*
X2700Y1550D02*
D03*
X2486Y1201D02*
D03*
X2590Y700D02*
D03*
X2569Y-39D02*
D03*
X4566Y-79D02*
D03*
X4566Y679D02*
D03*
X2910Y1050D02*
D03*
X4570Y-3590D02*
D03*
Y-2590D02*
D03*
Y-1590D02*
D03*
X2472D02*
D03*
X3682Y-2850D02*
D03*
X3490Y-590D02*
D03*
X4570D02*
D03*
X2570Y3590D02*
D03*
X4570D02*
D03*
X1570D02*
D03*
X4570Y2590D02*
D03*
X3570D02*
D03*
X4570Y1590D02*
D03*
X3570D02*
D03*
X3566Y679D02*
D03*
X3566Y-79D02*
D03*
X709Y-709D02*
D03*
X236D02*
D03*
X-236D02*
D03*
X-709D02*
D03*
X709Y-236D02*
D03*
X236D02*
D03*
X-236D02*
D03*
X-709D02*
D03*
X709Y236D02*
D03*
X236D02*
D03*
X-236D02*
D03*
X-709D02*
D03*
X709Y709D02*
D03*
X236D02*
D03*
X-236D02*
D03*
X-709D02*
D03*
X-2002Y-1330D02*
D03*
X-3790D02*
D03*
X1417Y-1378D02*
D03*
X1211Y-2550D02*
D03*
X404Y-2244D02*
D03*
X1545Y-1821D02*
D03*
X404Y-1821D02*
D03*
X-709Y1457D02*
D03*
X-2175Y1811D02*
D03*
X1201Y1496D02*
D03*
X659Y2146D02*
D03*
X-3062Y-157D02*
D03*
X-2337Y-1683D02*
D03*
X-3790Y-3590D02*
D03*
Y-2470D02*
D03*
Y984D02*
D03*
Y2362D02*
D03*
Y3590D02*
D03*
X-2559D02*
D03*
X-1575D02*
D03*
X-719D02*
D03*
X-2559Y2362D02*
D03*
X-2913Y1467D02*
D03*
X-2835Y1033D02*
D03*
X-2619Y394D02*
D03*
X-3790Y-60D02*
D03*
X-2500Y-3590D02*
D03*
X-2503Y-2559D02*
D03*
X-1912D02*
D03*
X-1970Y-3590D02*
D03*
X-1020D02*
D03*
X-1516Y-2864D02*
D03*
X-1043D02*
D03*
X148Y-2559D02*
D03*
X260Y-3590D02*
D03*
X1350D02*
D03*
X1496Y-2234D02*
D03*
X295Y2904D02*
D03*
X-740Y2710D02*
D03*
X-1191Y1619D02*
D03*
M02*
